<svg xmlns="http://www.w3.org/2000/svg" viewBox="0 0 822.75 749.82"><defs><style>.cls-1{fill:#fff;}.cls-11,.cls-2,.cls-7,.cls-8,.cls-9{fill:none;stroke:#fff;stroke-miterlimit:10;}.cls-11,.cls-2{stroke-width:0.75px;}.cls-2,.cls-7{stroke-dasharray:2 2;}.cls-3{fill:#9dafc4;}.cls-4{fill:#c5d0e2;}.cls-5{fill:#f0f7fc;}.cls-6{fill:#bfbfbf;}.cls-9{stroke-dasharray:2 2;}.cls-10{fill:#baccdb;}</style></defs><title>资源 11</title><g id="图层_2" data-name="图层 2"><g id="图层_1-2" data-name="图层 1"><path class="cls-1" d="M358.91,418.5l-1.65,19.7-13.54,1.86-4,48.31-23,3.16-4.86-20.65,8.86-1.21,2.24-26.75-69.5,9.52,1.65-19.7,69.5-9.52.8-9.54,20.84-2.86-.8,9.54Zm-18.62-29.83-5.52,19.21-74.39,10.2,1.56-18.66Zm-56.76,64.15L292.39,470l5.11-.7-4.84,19.73-15.84,2.17L260.61,456Zm-17.36-104,96.38-13.21-5.79,69.25-18,2.47,2.13-25.5-75.23,10.31,1.53-18.25,75.23-10.31.61-7.26-78.35,10.74Z"/><path class="cls-1" d="M443,321.31,427.52,363l8.86-1.21,22.83,91.57,6.56-.9-5.45,18.37-17.5,2.4-21.72-92.54L384,481.26l-17.5,2.4-2.47-17.29,6.56-.9,52.2-141.41Z"/><path class="cls-1" d="M551.17,306.89,550,320.37l38.24-5.24L583.36,374l-16,2.2,3.17-37.94-66,9L503,366l65.74-9-5.57,19.83-61.79,8.47-6.83,81.69L474,469.76l2-23.85,4-.54,9.77-116.73L531.08,323l1.13-13.48Zm24.64,147.48-16,2.2,4.11-49.14-44,6-2.5,29.86,43.87-6-5.68,19.84-55.85,7.65,5.72-68.42,76.06-10.42Z"/><path class="cls-1" d="M675.84,344.53l-5.68,13.69-17.5,2.4-.57,6.84,39.38-5.4-1.77,21.15,3.65-.5L692,398.27l-3.65.5-1.8,21.56-16.15,2.21,1.8-21.56L649,404.16l-.52,6.22,22.71-3.11-5.87,16-18.13,2.48L645.51,446l-27.09,3.71-3.74-14.45,13.44-1.84.43-5.18-37.3,5.11,1.28-15.34,37.3-5.11.52-6.22-40.74,5.58,1.3-15.55,40.74-5.58.52-6.22-37.3,5.11,1.25-14.93,37.3-5.11.57-6.84-37.3,5.11,3.09-36.91,37.3-5.11.5-6-41.05,5.63,1.39-16.59L639,303.67l.78-9.33,18.65-2.56-.78,9.33,43.45-6-1.39,16.59-43.45,6-.5,6,39.38-5.4L692,355.23l-16.77,2.3,1.91-22.81-22.61,3.1-.82,9.75Zm-61.06,8.37,20.32-2.79.82-9.74-20.32,2.78Zm59.29,26.31-23.24,3.18-.52,6.22,23.24-3.18Z"/><line class="cls-2" x1="198.43" y1="33.57" x2="821.23" y2="391.89"/><line class="cls-2" x1="698.16" y1="298.56" x2="685.54" y2="447.38"/><path class="cls-1" d="M142.15,560l4.08,8.39-1.48.22-1.33-2.74-3.71.55-1.36,3.14-.73.11,4.16-9.61ZM140,565.83l3.18-.47-1.57-3.25Z"/><path class="cls-1" d="M146.07,559.63l1.45-.22v8.79l-1.45.21Z"/><path class="cls-1" d="M153.16,559.26l.56-.08v2.92l3-.45v.54l-3,.45v2.92l-.56.08v-2.92l-3,.45v-.54l3-.45Z"/><path class="cls-1" d="M159.45,557.64l1.45-.21v8.79l-1.45.22Z"/><path class="cls-1" d="M161.81,557.29l.81-.12,5.67,5.58h.06v-6.43l.64-.1v9l-.34.05L162.51,559h0V566l-.65.1Z"/><path class="cls-1" d="M169.89,556.1l2.87-.43a9,9,0,0,1,2.29-.09,3.3,3.3,0,0,1,2.7,1.86,4,4,0,0,1,.37,1.75,5,5,0,0,1-1.3,3.36,5.56,5.56,0,0,1-1.57,1.19,6.7,6.7,0,0,1-2.14.67l-3.23.48Zm1.46,7.93,1.54-.23a4.24,4.24,0,0,0,1.38-.45,3.87,3.87,0,0,0,1.13-.9,4.18,4.18,0,0,0,.76-1.31,4.85,4.85,0,0,0,.28-1.68,3.82,3.82,0,0,0-.26-1.45,2.83,2.83,0,0,0-.73-1.06,2.73,2.73,0,0,0-1.12-.6,3.43,3.43,0,0,0-1.42-.06l-1.55.23Z"/><path class="cls-1" d="M178.5,554.82l1.45-.21v5.71a2.75,2.75,0,0,0,.19,1,2.06,2.06,0,0,0,1.39,1.25,2.64,2.64,0,0,0,1.11.05,3.14,3.14,0,0,0,1.12-.38,3.07,3.07,0,0,0,.84-.71,3.12,3.12,0,0,0,.53-.95,3.17,3.17,0,0,0,.19-1.08V553.8l.64-.09v5.71a4,4,0,0,1-.21,1.3,3.34,3.34,0,0,1-.67,1.15,4,4,0,0,1-1.18.89,5.55,5.55,0,0,1-1.72.52,4.27,4.27,0,0,1-1.58,0,2.76,2.76,0,0,1-1.15-.54,2.46,2.46,0,0,1-.71-1,3.23,3.23,0,0,1-.24-1.25Z"/><path class="cls-1" d="M189.08,561.69a2.54,2.54,0,0,0,.64-.18,2.1,2.1,0,0,0,.56-.35,1.72,1.72,0,0,0,.39-.49,1.28,1.28,0,0,0,.15-.61,1.13,1.13,0,0,0-.21-.69,2,2,0,0,0-.54-.5,4.15,4.15,0,0,0-.76-.38l-.87-.33-.87-.36a3.55,3.55,0,0,1-.76-.46,2.13,2.13,0,0,1-.54-.62,1.71,1.71,0,0,1-.21-.86,2.54,2.54,0,0,1,.73-1.79,3.17,3.17,0,0,1,.88-.63,4.11,4.11,0,0,1,1.21-.36,2.94,2.94,0,0,1,1.94.24,2.37,2.37,0,0,1,1,1.36l-.75.46a3,3,0,0,0-.33-.69,1.84,1.84,0,0,0-.48-.5,1.69,1.69,0,0,0-.65-.27,2.37,2.37,0,0,0-.83,0,2.2,2.2,0,0,0-.72.22,1.9,1.9,0,0,0-.51.38,1.52,1.52,0,0,0-.3.47,1.33,1.33,0,0,0-.1.5.92.92,0,0,0,.21.6,2.15,2.15,0,0,0,.55.46,5,5,0,0,0,.78.38l.9.35c.3.12.6.24.9.38a3.83,3.83,0,0,1,.78.47,2.23,2.23,0,0,1,.55.61,1.5,1.5,0,0,1,.21.8,2.68,2.68,0,0,1-.78,1.9,3.44,3.44,0,0,1-1,.69,4.57,4.57,0,0,1-1.35.4,4,4,0,0,1-1.11,0A2.46,2.46,0,0,1,187,562a2.11,2.11,0,0,1-.64-.55,3.07,3.07,0,0,1-.44-.81l.78-.44a2.57,2.57,0,0,0,.37.71,2,2,0,0,0,.54.5,1.93,1.93,0,0,0,.68.26A2.48,2.48,0,0,0,189.08,561.69Z"/><path class="cls-1" d="M199.32,551.73v.57l-3.13.46V561l-1.45.22V553l-3.13.46v-.57Z"/><path class="cls-1" d="M199.38,551.72l3-.44a4.79,4.79,0,0,1,1.37,0,2.48,2.48,0,0,1,1,.33,1.61,1.61,0,0,1,.59.64,1.93,1.93,0,0,1,.2.89,2.08,2.08,0,0,1-.15.79,2.56,2.56,0,0,1-.43.71,3.43,3.43,0,0,1-.67.6,4.21,4.21,0,0,1-.86.45l3.15,3.8-1.68.25-3-3.69-1,.15v4.13l-1.45.22Zm1.46,4,.84-.12a3.21,3.21,0,0,0,.9-.27,2.71,2.71,0,0,0,.72-.48,2.12,2.12,0,0,0,.47-.66,1.89,1.89,0,0,0,.17-.8,1.75,1.75,0,0,0-.14-.7,1.38,1.38,0,0,0-.38-.51,1.4,1.4,0,0,0-.58-.28,1.86,1.86,0,0,0-.73,0l-1.28.19Z"/><path class="cls-1" d="M206.17,550.71l3,4,3-4.9.79-.12-3.35,5.49V559l-1.45.22v-3.66l-3.46-4.62Z"/><path class="cls-1" d="M200.33,23.54l2.5,8.18.6-.09v.14l-2.51.37V32l.8-.12-.82-2.8-2,.3-.82,3,.71-.11v.14l-1.43.21v-.14l.6-.09Zm.53,5.4-1-3.3-1,3.59Z"/><path class="cls-1" d="M206.27,23.12l-.74.11v-.14l2.53-.38v.14l-.75.11V31l.57-.08a2.29,2.29,0,0,0,.82-.29,2.87,2.87,0,0,0,.72-.6,3.54,3.54,0,0,0,.55-.87,4,4,0,0,0,.3-1.11v2.67l-4.73.7v-.14l.74-.11Z"/><path class="cls-1" d="M217.11,26.66l-.92.14v-.14l2.71-.4v.14l-.76.11v3.08a.43.43,0,0,0-.09-.2.38.38,0,0,0-.13-.09l-.13,0h-.1a.56.56,0,0,0-.22.09l-.34.24a2.74,2.74,0,0,1-.61.37,2.58,2.58,0,0,1-.62.17,2,2,0,0,1-1.13-.14,2.21,2.21,0,0,1-.88-.73,3.74,3.74,0,0,1-.57-1.25,6.38,6.38,0,0,1-.21-1.69,7,7,0,0,1,.26-2,6.16,6.16,0,0,1,.66-1.54,3.88,3.88,0,0,1,.88-1,2,2,0,0,1,.92-.44,1.14,1.14,0,0,1,.48,0l.54.18a1.21,1.21,0,0,0,.3.1h.14a.26.26,0,0,0,.18-.09.36.36,0,0,0,.08-.17h.09v2.44h-.09a4.72,4.72,0,0,0-.17-.93,3,3,0,0,0-.34-.78,1.51,1.51,0,0,0-.51-.52,1,1,0,0,0-.69-.12,1.3,1.3,0,0,0-.49.17,1.46,1.46,0,0,0-.34.28,1.69,1.69,0,0,0-.23.32c-.06.11-.11.21-.15.3a3.74,3.74,0,0,0-.18.71q-.07.43-.11.91c0,.32,0,.65,0,1s0,.63,0,.9,0,.79,0,1.11,0,.6,0,.84a6.2,6.2,0,0,0,.08.65,5,5,0,0,0,.13.54,1.26,1.26,0,0,0,.45.7,1.11,1.11,0,0,0,.82.14,1.84,1.84,0,0,0,.68-.22,1.09,1.09,0,0,0,.39-.39,1.36,1.36,0,0,0,.17-.52,5.53,5.53,0,0,0,0-.62Z"/><path class="cls-1" d="M221.38,24.92a6.5,6.5,0,0,1,.25-1.85,5.75,5.75,0,0,1,.65-1.48,3.88,3.88,0,0,1,.92-1,2.26,2.26,0,0,1,1-.46,1.8,1.8,0,0,1,1,.16,2.5,2.5,0,0,1,.92.75,4.21,4.21,0,0,1,.66,1.29,5.68,5.68,0,0,1,.25,1.77,6.34,6.34,0,0,1-.26,1.85,5.93,5.93,0,0,1-.67,1.49,4,4,0,0,1-.92,1,2.24,2.24,0,0,1-1,.46,1.75,1.75,0,0,1-1-.16,2.56,2.56,0,0,1-.92-.75,4.17,4.17,0,0,1-.67-1.29A5.56,5.56,0,0,1,221.38,24.92Zm1.18-.18q0,.22,0,.65c0,.29,0,.59,0,.92s.07.65.13,1a3.34,3.34,0,0,0,.25.82,1,1,0,0,0,.52.57,1.32,1.32,0,0,0,.73.08,1.62,1.62,0,0,0,.73-.3,1.66,1.66,0,0,0,.53-.72,4,4,0,0,0,.24-.89q.08-.51.12-1c0-.33,0-.64,0-.93s0-.5,0-.65,0-.36,0-.65,0-.58,0-.91-.07-.65-.12-1a3.61,3.61,0,0,0-.24-.83,1,1,0,0,0-.52-.57,1.35,1.35,0,0,0-.74-.08,1.63,1.63,0,0,0-.73.3,1.6,1.6,0,0,0-.52.72,4.81,4.81,0,0,0-.24.91c-.06.34-.1.67-.12,1s0,.64,0,.92S222.56,24.59,222.56,24.74Z"/><path class="cls-1" d="M230.59,19.51l-.74.11v-.14l2.41-.36a2.73,2.73,0,0,1,.74,0,1.7,1.7,0,0,1,.7.25,1.52,1.52,0,0,1,.52.57,2,2,0,0,1,.21,1,1.88,1.88,0,0,1-.14.74,2.46,2.46,0,0,1-.36.59,2.4,2.4,0,0,1-.47.44,2.48,2.48,0,0,1-.5.27,1.84,1.84,0,0,1,1,.26,1.42,1.42,0,0,1,.51.6,2.5,2.5,0,0,1,.2.84c0,.31,0,.64,0,1s0,.4,0,.57a2.21,2.21,0,0,0,.05.44.57.57,0,0,0,.14.27.3.3,0,0,0,.27.07.48.48,0,0,0,.29-.15l.18-.2,0,0a1.6,1.6,0,0,1-.23.3.8.8,0,0,1-.49.24,1.12,1.12,0,0,1-.69-.08,1,1,0,0,1-.42-.41,1.8,1.8,0,0,1-.21-.63,5.32,5.32,0,0,1-.05-.76v-.26c0-.12,0-.24,0-.38s0-.27,0-.4,0-.24,0-.31a1.45,1.45,0,0,0-.13-.47.78.78,0,0,0-.22-.27.6.6,0,0,0-.28-.11,1.28,1.28,0,0,0-.33,0l-.91.13v4.2l.75-.11v.14l-2.53.38V27.7l.74-.11Zm1,3.61.91-.14a.87.87,0,0,0,.29-.1.71.71,0,0,0,.26-.29,1.94,1.94,0,0,0,.19-.57,5,5,0,0,0,.07-1,5.93,5.93,0,0,0,0-.76,1.89,1.89,0,0,0-.18-.6.88.88,0,0,0-.34-.37.81.81,0,0,0-.53-.07l-.63.09Z"/><path class="cls-1" d="M238.79,18.29l-.75.11v-.14l2.53-.38V18l-.75.11v8.09l.75-.11v.14l-2.53.38v-.14l.75-.11Z"/><path class="cls-1" d="M245.21,17.34h-.1a1.59,1.59,0,0,0-.77.33,2.46,2.46,0,0,0-.58.67,4.11,4.11,0,0,0-.4.92,5.82,5.82,0,0,0-.21,1.06V17.5l5.15-.76v2.83a4.88,4.88,0,0,0-.21-1,2.74,2.74,0,0,0-.4-.8,1.65,1.65,0,0,0-.59-.5,1.25,1.25,0,0,0-.76-.11h-.1v8.09l.74-.11v.14l-2.52.37v-.14l.74-.11Z"/><path class="cls-1" d="M251.55,16.4l-.74.11v-.14l2.61-.39v.14l-.83.12v3.84l2.36-.35V15.89l-.84.13v-.14l2.62-.39v.14l-.75.11v8.09l.75-.11v.14l-2.62.39V24.1l.84-.12V19.87l-2.36.35v4.11l.83-.12v.14l-2.61.39v-.14l.74-.11Z"/><path class="cls-1" d="M260.1,15.13l-.76.11V15.1l1.88-.28,1.25,5.89,1.6-6.31,1.86-.28v.14l-.75.11v8.09l.75-.11v.14l-2.53.38v-.14l.74-.11V14.53L262,23.17l-1.77-8.06V23.2l.78-.12v.14l-1.63.24v-.14l.76-.11Z"/><path class="cls-1" d="M275.14,12.44l2.5,8.18.6-.09v.14l-2.51.37V20.9l.8-.12L275.7,18l-2,.3-.82,3,.71-.11v.14l-1.43.21v-.14l.6-.09Zm.53,5.4-1-3.3-1,3.59Z"/><path class="cls-1" d="M281.09,12l-.74.11V12l2.53-.38v.14l-.75.11v8.09l.57-.08a2.29,2.29,0,0,0,.82-.29,2.84,2.84,0,0,0,.72-.6,3.48,3.48,0,0,0,.55-.87,4,4,0,0,0,.3-1.11v2.67l-4.73.7v-.14l.74-.11Z"/><path class="cls-1" d="M288,16.34h.1a5,5,0,0,0,.24,1.16,3.38,3.38,0,0,0,.44.88,1.76,1.76,0,0,0,.56.53,1,1,0,0,0,.64.12,1.48,1.48,0,0,0,.5-.17,1.63,1.63,0,0,0,.43-.36,1.69,1.69,0,0,0,.3-.54,2.16,2.16,0,0,0,.11-.73,1.89,1.89,0,0,0-.08-.6,1.16,1.16,0,0,0-.27-.44,2.32,2.32,0,0,0-.5-.37l-.76-.42L289,15a1.79,1.79,0,0,1-.47-.41,1.6,1.6,0,0,1-.29-.56,3,3,0,0,1-.1-.83,3.93,3.93,0,0,1,.13-1,3.52,3.52,0,0,1,.36-.89,2.54,2.54,0,0,1,.54-.66,1.32,1.32,0,0,1,.67-.32,1.06,1.06,0,0,1,.41,0,2.71,2.71,0,0,1,.41.14l.18.06H291a.23.23,0,0,0,.2-.15,1.49,1.49,0,0,0,.07-.22h.09v2.34h-.09a4.36,4.36,0,0,0-.13-.74,3,3,0,0,0-.27-.69,1.45,1.45,0,0,0-.42-.49.78.78,0,0,0-.59-.13,1.15,1.15,0,0,0-.36.12,1.26,1.26,0,0,0-.36.29,1.52,1.52,0,0,0-.27.48,2.28,2.28,0,0,0,0,1.39,1.39,1.39,0,0,0,.32.49,2.5,2.5,0,0,0,.52.39l.72.39.57.31a1.82,1.82,0,0,1,.47.38,1.71,1.71,0,0,1,.32.56,2.52,2.52,0,0,1,.12.83,3.51,3.51,0,0,1-.16,1,3.81,3.81,0,0,1-.43.94,2.83,2.83,0,0,1-.63.7,1.55,1.55,0,0,1-.73.33l-.37,0a1.4,1.4,0,0,1-.53-.11l-.39-.12a.63.63,0,0,0-.25,0,.34.34,0,0,0-.25.14.51.51,0,0,0-.08.24H288Z"/><path class="cls-1" d="M294.81,14a6.46,6.46,0,0,1,.25-1.85,5.75,5.75,0,0,1,.65-1.48,3.88,3.88,0,0,1,.92-1,2.26,2.26,0,0,1,1-.46,1.8,1.8,0,0,1,1,.16,2.49,2.49,0,0,1,.92.75,4.21,4.21,0,0,1,.66,1.29,5.68,5.68,0,0,1,.25,1.77,6.34,6.34,0,0,1-.26,1.85,5.93,5.93,0,0,1-.67,1.49,4,4,0,0,1-.92,1,2.24,2.24,0,0,1-1,.46,1.74,1.74,0,0,1-1-.16,2.55,2.55,0,0,1-.92-.75,4.19,4.19,0,0,1-.67-1.29A5.56,5.56,0,0,1,294.81,14Zm1.18-.18q0,.22,0,.65c0,.29,0,.59,0,.92s.07.65.13,1a3.3,3.3,0,0,0,.25.82,1,1,0,0,0,.52.57,1.32,1.32,0,0,0,.73.08,1.62,1.62,0,0,0,.73-.3,1.66,1.66,0,0,0,.53-.72,4,4,0,0,0,.24-.89c.06-.34.1-.68.12-1s0-.64,0-.93,0-.5,0-.65,0-.36,0-.65,0-.58,0-.91-.07-.65-.12-1a3.61,3.61,0,0,0-.24-.83,1,1,0,0,0-.52-.57,1.35,1.35,0,0,0-.74-.08,1.63,1.63,0,0,0-.73.3,1.6,1.6,0,0,0-.52.72,4.74,4.74,0,0,0-.24.91c-.06.34-.1.67-.12,1s0,.64,0,.92S296,13.69,296,13.84Z"/><path class="cls-1" d="M308.18,8l-.74.11V8l2.39-.36a2.7,2.7,0,0,1,.89,0,1.87,1.87,0,0,1,.79.35,1.91,1.91,0,0,1,.57.74,2.88,2.88,0,0,1,.22,1.2,3.1,3.1,0,0,1-.09.77,3,3,0,0,1-.25.67,2.77,2.77,0,0,1-.38.55,3.24,3.24,0,0,1-.46.43,2.21,2.21,0,0,1-.44.25,2.09,2.09,0,0,1-.51.13,1.29,1.29,0,0,1-.58,0,1.14,1.14,0,0,1-.38-.17v3.42l.74-.11V16l-2.52.37v-.14l.74-.11Zm1,4.3a.4.4,0,0,0,.14.13.88.88,0,0,0,.23.1l.27.06a.9.9,0,0,0,.26,0,.87.87,0,0,0,.53-.28,1.63,1.63,0,0,0,.33-.57,3.56,3.56,0,0,0,.17-.77,8,8,0,0,0,0-.89,6.66,6.66,0,0,0-.07-1,2.47,2.47,0,0,0-.22-.77,1.13,1.13,0,0,0-.43-.48,1,1,0,0,0-.68-.1l-.58.09Z"/><path class="cls-1" d="M315.82,6.86l-.74.11V6.83l2.41-.36a2.73,2.73,0,0,1,.74,0,1.7,1.7,0,0,1,.7.25,1.54,1.54,0,0,1,.52.57,2,2,0,0,1,.21,1,1.88,1.88,0,0,1-.14.74,2.43,2.43,0,0,1-.36.59,2.34,2.34,0,0,1-.47.44,2.48,2.48,0,0,1-.5.27,1.83,1.83,0,0,1,1,.26,1.41,1.41,0,0,1,.51.6,2.5,2.5,0,0,1,.2.84q0,.47,0,1c0,.21,0,.4,0,.57A2.29,2.29,0,0,0,320,14a.57.57,0,0,0,.14.27.3.3,0,0,0,.27.07.48.48,0,0,0,.29-.15l.18-.2,0,0a1.59,1.59,0,0,1-.23.3.79.79,0,0,1-.49.24,1.11,1.11,0,0,1-.69-.08A1,1,0,0,1,319,14a1.8,1.8,0,0,1-.21-.63,5.18,5.18,0,0,1-.05-.76V12.4q0-.18,0-.38c0-.14,0-.27,0-.4s0-.24,0-.31a1.46,1.46,0,0,0-.13-.47.77.77,0,0,0-.22-.27.6.6,0,0,0-.28-.11,1.27,1.27,0,0,0-.33,0l-.91.13v4.2l.75-.11v.14l-2.53.38v-.14l.74-.11Zm1,3.61.91-.14a.87.87,0,0,0,.29-.1.73.73,0,0,0,.26-.29,1.91,1.91,0,0,0,.19-.57,4.9,4.9,0,0,0,.07-1,5.75,5.75,0,0,0,0-.76,1.86,1.86,0,0,0-.18-.6.88.88,0,0,0-.34-.37.81.81,0,0,0-.53-.07l-.63.09Z"/><path class="cls-1" d="M323.29,9.79a6.5,6.5,0,0,1,.25-1.85,5.74,5.74,0,0,1,.65-1.48,3.87,3.87,0,0,1,.92-1,2.27,2.27,0,0,1,1-.46,1.8,1.8,0,0,1,1,.16,2.5,2.5,0,0,1,.92.75,4.24,4.24,0,0,1,.66,1.29A5.68,5.68,0,0,1,329,8.94a6.34,6.34,0,0,1-.26,1.85,5.93,5.93,0,0,1-.67,1.49,4,4,0,0,1-.92,1,2.25,2.25,0,0,1-1,.46,1.75,1.75,0,0,1-1-.16,2.56,2.56,0,0,1-.92-.75,4.18,4.18,0,0,1-.67-1.29A5.56,5.56,0,0,1,323.29,9.79Zm1.18-.18q0,.22,0,.65c0,.29,0,.59,0,.92s.07.65.13,1a3.25,3.25,0,0,0,.25.82,1,1,0,0,0,.52.57,1.33,1.33,0,0,0,.73.08,1.62,1.62,0,0,0,.73-.3,1.68,1.68,0,0,0,.53-.73,4,4,0,0,0,.24-.89q.08-.51.12-1c0-.33,0-.64,0-.93s0-.5,0-.65,0-.36,0-.64,0-.58,0-.91-.07-.65-.12-1a3.57,3.57,0,0,0-.24-.83,1.05,1.05,0,0,0-.52-.57,1.36,1.36,0,0,0-.74-.08,1.64,1.64,0,0,0-.73.3,1.59,1.59,0,0,0-.52.72,4.67,4.67,0,0,0-.24.91q-.09.51-.13,1c0,.33,0,.64,0,.92S324.47,9.47,324.47,9.62Z"/><path class="cls-1" d="M332.5,4.38l-.74.11V4.35L334.32,4a2.16,2.16,0,0,1,1.26.17,2.7,2.7,0,0,1,1,.8,4,4,0,0,1,.65,1.29,5.43,5.43,0,0,1,.24,1.62,6,6,0,0,1-.19,1.46,5,5,0,0,1-.58,1.38,3.92,3.92,0,0,1-1,1.08,3,3,0,0,1-1.39.57l-.42.06-.43.06-.65.1-1,.16v-.14l.74-.11Zm1,7.92.83-.12a1.62,1.62,0,0,0,1-.5,2.77,2.77,0,0,0,.57-1,5.83,5.83,0,0,0,.26-1.32q.06-.72.06-1.44c0-.54,0-1.05-.06-1.54a4.55,4.55,0,0,0-.27-1.26,1.74,1.74,0,0,0-.6-.81,1.39,1.39,0,0,0-1-.18l-.75.11Z"/><path class="cls-1" d="M342.09,8.32c0,.4,0,.76,0,1.07a3.32,3.32,0,0,0,.12.79,1.32,1.32,0,0,0,.44.7,1,1,0,0,0,.81.16,1.75,1.75,0,0,0,1.23-.8,3.23,3.23,0,0,0,.46-1.84V2.5l-.74.11V2.47l1.6-.24v.14l-.75.11v5.9a3.38,3.38,0,0,1-.5,2,1.91,1.91,0,0,1-1.32.84,3,3,0,0,1-1.06,0,1.38,1.38,0,0,1-.75-.42,2.06,2.06,0,0,1-.45-.9,5.87,5.87,0,0,1-.15-1.42V3.11l-.74.11V3.08l2.53-.38v.14l-.75.11Z"/><path class="cls-1" d="M353.19,3.7h-.09a5.76,5.76,0,0,0-.17-.92A2.87,2.87,0,0,0,352.6,2a1.61,1.61,0,0,0-.51-.52,1,1,0,0,0-.69-.13,1.29,1.29,0,0,0-.49.17,1.44,1.44,0,0,0-.34.28,1.66,1.66,0,0,0-.23.32q-.09.17-.15.3a3.72,3.72,0,0,0-.18.71c0,.28-.08.59-.11.91s0,.64,0,1,0,.62,0,.89,0,.79,0,1.11,0,.59,0,.83a6.17,6.17,0,0,0,.08.64,5,5,0,0,0,.13.54,1.26,1.26,0,0,0,.45.7,1.1,1.1,0,0,0,.82.14,1.68,1.68,0,0,0,.63-.23,2,2,0,0,0,.55-.51,3,3,0,0,0,.42-.83,5.42,5.42,0,0,0,.25-1.18h.1V9.6h-.1a.2.2,0,0,0-.09-.15.37.37,0,0,0-.23,0,.77.77,0,0,0-.2.06l-.31.17-.37.16a2.35,2.35,0,0,1-.61.17,2,2,0,0,1-1.08-.13,2.14,2.14,0,0,1-.87-.7,3.73,3.73,0,0,1-.59-1.24,6.31,6.31,0,0,1-.22-1.74,7,7,0,0,1,.26-2,6.17,6.17,0,0,1,.66-1.54,3.89,3.89,0,0,1,.88-1,2,2,0,0,1,.92-.44,1.15,1.15,0,0,1,.48,0l.54.18a1.15,1.15,0,0,0,.3.1h.14a.26.26,0,0,0,.18-.09.37.37,0,0,0,.08-.17h.09Z"/><path class="cls-1" d="M358,.6h-.1a1.6,1.6,0,0,0-.77.33,2.49,2.49,0,0,0-.58.67,4.12,4.12,0,0,0-.4.92,5.75,5.75,0,0,0-.21,1.06V.76L361.07,0V2.83a4.94,4.94,0,0,0-.21-1,2.74,2.74,0,0,0-.4-.8,1.66,1.66,0,0,0-.59-.5,1.25,1.25,0,0,0-.76-.1H359V8.53l.74-.11v.14l-2.52.37V8.8l.74-.11Z"/><path class="cls-1" d="M562.19,227.76l1.23-.18q.11-1.42.09-2.93l-.14,0a11.81,11.81,0,0,1-.5,1.24,10.26,10.26,0,0,1-.74,1.3q.12-.42.25-1t.22-1.24q.1-.66.18-1.34t.1-1.33l1.26.38a.66.66,0,0,1-.12.31.47.47,0,0,1-.23.19l-.16.64c-.05.21-.12.42-.19.64l2.11-.31-.09.21-1,.15q0,.82,0,1.55t-.08,1.38l1.32-.2-.11.2-1.23.18q0,.33-.07.64c0,.2-.06.4-.09.59a2.47,2.47,0,0,1,1,.72,1.61,1.61,0,0,1,.35,1,1.56,1.56,0,0,1-.07.51,1.05,1.05,0,0,1-.19.33.67.67,0,0,1-.24.18.57.57,0,0,1-.25,0l-.11-.62c0-.24-.09-.49-.14-.74s-.11-.5-.18-.75a6.41,6.41,0,0,0-.21-.65,9.48,9.48,0,0,1-.78,2.45,8,8,0,0,1-1.32,1.91,11.51,11.51,0,0,0,.91-2.58,21.7,21.7,0,0,0,.45-2.94l-1.14.17Zm6.39,4.09a.78.78,0,0,1-.4,0,.66.66,0,0,1-.46-.23v-1.06l-1.11.17v1.15a1.1,1.1,0,0,1-.42.3,1.83,1.83,0,0,1-.43.09v-9.06a1.47,1.47,0,0,1,.83.26l1.15-.17.83-.49Zm-2-1.26,1.11-.17v-6.86l-1.11.17Z"/><path class="cls-1" d="M571.43,225.08l.81-.12.81-.5v3.87l1-1.08-1.44,3.26a1.15,1.15,0,0,1,0,.23.34.34,0,0,1-.1.18l-.65-1.31.31-.33v-4.14l-.7.1Zm1-1.69c0-.14-.06-.32-.11-.51l-.14-.61c0-.21-.1-.41-.15-.59s-.1-.34-.14-.46a1.28,1.28,0,0,1,.35,0,1.39,1.39,0,0,1,.41.17,1.29,1.29,0,0,1,.36.32,1,1,0,0,1,.2.5,1.23,1.23,0,0,1,0,.54,1,1,0,0,1-.2.38.73.73,0,0,1-.29.21A.39.39,0,0,1,572.42,223.4Zm3.59,4.22a.43.43,0,0,1-.38.32q-.21.44-.47.94t-.59,1a10.67,10.67,0,0,1-.67.89,4.85,4.85,0,0,1-.7.69l.36-.75q.23-.5.48-1.12t.46-1.3a8.37,8.37,0,0,0,.32-1.29Zm1.66-1.42-.18.05h-.24l-.24-.05a.58.58,0,0,1-.21-.12v-.51l-1.68.25v.61a1.43,1.43,0,0,1-.43.28,1.61,1.61,0,0,1-.44.11v-5.4a1.55,1.55,0,0,1,.48.05,2.47,2.47,0,0,1,.39.16l1.71-.25.84-.43Zm-2.55-.57,1.68-.25v-3.78l-1.68.25Zm2.34,5-.22-.81q-.13-.49-.29-1t-.32-1a7.39,7.39,0,0,0-.32-.83,3.91,3.91,0,0,1,.79.49,4.4,4.4,0,0,1,.59.57,2.76,2.76,0,0,1,.38.57,2,2,0,0,1,.18.48,2.17,2.17,0,0,1,0,.64,1.36,1.36,0,0,1-.15.49,1,1,0,0,1-.28.32A.85.85,0,0,1,577.46,230.62Z"/><path class="cls-1" d="M587.11,229.31l-.18.05h-.24a.87.87,0,0,1-.25-.06.51.51,0,0,1-.21-.17v-.4l-4.24.63v.52a1.17,1.17,0,0,1-.4.31,1.46,1.46,0,0,1-.42.1v-10a1.55,1.55,0,0,1,.42.05,1.07,1.07,0,0,1,.37.19l4.27-.63v0l.89-.53Zm-5.13-.13,4.24-.63V220.1l-4.24.63Zm4.17-5.18-.32.69a7,7,0,0,0-.28.76,3.56,3.56,0,0,1-.74-.34,2.71,2.71,0,0,1-.68-.6,5.92,5.92,0,0,1-1,.86,8.53,8.53,0,0,1-1.15.69q.49-.5.92-1a9.88,9.88,0,0,0,.79-1.14,4.53,4.53,0,0,1-.4-1.19,8.35,8.35,0,0,1-1,1.82q.23-.84.43-1.85a17.37,17.37,0,0,0,.28-2l1,.38c0,.24-.14.37-.29.4l-.15.5,1-.15.09-.35.08-.36.94.8a.66.66,0,0,1-.1.34.23.23,0,0,1-.25.07,8.21,8.21,0,0,1-.7,1.44,2.63,2.63,0,0,0,.77.2C585.71,224,585.94,224,586.15,224Zm-1.43,4.69c-.12-.15-.25-.3-.39-.45s-.29-.3-.45-.45-.32-.28-.49-.4a4.28,4.28,0,0,0-.48-.32,6.23,6.23,0,0,1,.93-.08,3.61,3.61,0,0,1,.65,0,1.32,1.32,0,0,1,.41.13.56.56,0,0,1,.21.18.72.72,0,0,1,.1.34,1.25,1.25,0,0,1,0,.39,1.27,1.27,0,0,1-.16.36A.62.62,0,0,1,584.72,228.69Zm-1.2-6.52-.06.2-.07.2a2.8,2.8,0,0,0,.3.44,2.71,2.71,0,0,0,.34.34,6,6,0,0,0,.3-.64q.13-.34.25-.7Zm.81,4.7c0-.09-.09-.19-.16-.31l-.22-.38c-.08-.14-.16-.27-.24-.4l-.25-.35a2.53,2.53,0,0,1,.89,0,.48.48,0,0,1,.42.41,1.22,1.22,0,0,1,0,.6A.73.73,0,0,1,584.33,226.86Z"/><path class="cls-1" d="M590,222.54l.78-.12.69-.5v4.29l.91-.86L591.25,228a.7.7,0,0,1-.13.45l-.66-1.33.24-.22v-4.31l-.69.1Zm1-1.89-.11-.51c0-.2-.09-.4-.14-.61l-.15-.59c0-.19-.09-.34-.13-.46a1.31,1.31,0,0,1,.36,0,1.54,1.54,0,0,1,.42.16,1.26,1.26,0,0,1,.37.31,1.05,1.05,0,0,1,.21.5,1.17,1.17,0,0,1,0,.55,1.05,1.05,0,0,1-.21.38.83.83,0,0,1-.3.21A.38.38,0,0,1,590.94,220.65Zm1.12-.87,1.27-.19q-.08-.4-.18-.82T593,218a1.44,1.44,0,0,1,.38,0,1.16,1.16,0,0,1,.35.12.72.72,0,0,1,.25.24.65.65,0,0,1,.1.36,1.08,1.08,0,0,1-.09.46.84.84,0,0,1-.22.3l1.09-.16.17-1.65,1,.39a.44.44,0,0,1-.15.21.29.29,0,0,1-.2.07l-.66,1,1.71-.25-.08.19-1.49.22v3.16l1.53-.23-.09.19-4.66.69-.08-.17,1.39-.21v-3.16l-1.12.17Zm1,2.08a.91.91,0,0,1-.22.57,1,1,0,0,1-.42.3c0-.15,0-.33-.07-.52s-.06-.39-.09-.59-.06-.39-.09-.58-.07-.35-.1-.5a1.58,1.58,0,0,1,.8.5A1.27,1.27,0,0,1,593.11,221.86Zm3,6.14-.17,0h-.22a1,1,0,0,1-.23-.05.51.51,0,0,1-.2-.13v-.23l-1.92.29v.34a1.36,1.36,0,0,1-.4.27,1.42,1.42,0,0,1-.4.09v-4.69a1.29,1.29,0,0,1,.42.05,1.78,1.78,0,0,1,.36.17l2-.29.8-.44Zm-2.75-2.18,1.92-.29V224l-1.92.29Zm0,1.89,1.92-.29v-1.7l-1.92.29Zm.64-4.88.45-.07V219.6l-.45.07Zm2.67-2.32a.3.3,0,0,1-.14.19.27.27,0,0,1-.21,0l-1,1.72.38-2.5Z"/><path class="cls-1" d="M91.86,296.24l.72-1.47.67.84v-.17a1.79,1.79,0,0,1,.4.06.91.91,0,0,1,.34.16l.36-.05h0l.78-.4v7a1.51,1.51,0,0,1-.23.92,1.33,1.33,0,0,1-.66.45c0-.14,0-.32,0-.54a1,1,0,0,0-.22-.57V305a1,1,0,0,1-.37.27,1.27,1.27,0,0,1-.37.09v-9.56L93,296l-.37.21-.39.21-.35.17v5l.34-.18q.07-1.09,0-2.23t0-2.34l.94.14a.85.85,0,0,1-.09.28.74.74,0,0,1-.15.2q0,1.46,0,2.56c0,.73-.07,1.36-.13,1.91a8.74,8.74,0,0,1-.27,1.39,5.55,5.55,0,0,1-.4,1,4.29,4.29,0,0,1-.53.79,9.1,9.1,0,0,1-.66.68,6.54,6.54,0,0,0,.88-1.94,12.27,12.27,0,0,0,.37-2.14l-.61,1.14a.84.84,0,0,1-.15.52l-.5-1.27.22-.13v-5.85l-.35.05v9.22a.75.75,0,0,1-.18.2,1.13,1.13,0,0,1-.22.14.7.7,0,0,1-.21.07.34.34,0,0,1-.15,0v-2.83q-.29.35-.61.67a7.65,7.65,0,0,1-.57.54,1,1,0,0,1,0,.3.46.46,0,0,1-.12.21L88.39,303l.23-.07.22-.07v-6.46l-.31,0-.06-.18,2.73-.4,0,.06a1.08,1.08,0,0,1,.69.25Zm-2.32,2.06.5-.07v-2l-.5.07Zm0,2.23.5-.07v-2l-.5.07Zm0,2.07.23-.1.26-.13v-1.72l-.5.07Zm4.57-.39a.17.17,0,0,0,.18-.13.82.82,0,0,0,0-.26v-6l-.36.05v6.37Z"/><path class="cls-1" d="M98.33,295l5.51-.82-.09.21-2.38.35a28.22,28.22,0,0,1-.09,3.17l3.23-.48-.09.2-3,.44a6.07,6.07,0,0,0,1.28,2.3,4.51,4.51,0,0,0,1.9,1.24q-.28.47-.55.94a9.12,9.12,0,0,0-.51,1.1,5.67,5.67,0,0,1-.75-.91,7.05,7.05,0,0,1-.65-1.21,10,10,0,0,1-.5-1.54,13.23,13.23,0,0,1-.31-1.9l-.12,0a11.93,11.93,0,0,1-.46,2.33,8.23,8.23,0,0,1-.77,1.73,7.82,7.82,0,0,1-1,1.37q-.59.62-1.29,1.25.58-.87,1-1.67a15,15,0,0,0,.75-1.58,12.15,12.15,0,0,0,.51-1.59,12.67,12.67,0,0,0,.3-1.69l-2.4.36-.06-.18,2.48-.37q.07-.71.08-1.49t0-1.68l-1.92.29Z"/><path class="cls-1" d="M107,295.47l1.08-.16v-2.79l1.13.15a.57.57,0,0,1-.27.44v2.07L110,295l-.1.2-1,.15v1a1.84,1.84,0,0,1,.79.57,1.26,1.26,0,0,1,.27.65,1.56,1.56,0,0,1-.05.51,1.05,1.05,0,0,1-.16.33.51.51,0,0,1-.21.17.36.36,0,0,1-.24,0l-.07-.49c0-.2-.06-.41-.1-.62l-.12-.62c0-.2-.07-.37-.11-.51v6.31a1.2,1.2,0,0,1-.45.35,1.77,1.77,0,0,1-.4.13v-5q-.25.7-.54,1.33a11.31,11.31,0,0,1-.6,1.15q.35-1.25.63-2.53a23,23,0,0,0,.42-2.56l-.92.14Zm3.11-2.54a1.07,1.07,0,0,1,.43,0,.73.73,0,0,1,.42.24l.92-.14.88-.55v8.15a.68.68,0,0,0,0,.24.16.16,0,0,0,.07.08.11.11,0,0,0,.09,0l.08,0c.06,0,.12-.11.18-.29a5.21,5.21,0,0,0,.17-.71q.08-.43.15-1c0-.35.08-.69.11-1q0,.47,0,1c0,.32,0,.62,0,.9a3.68,3.68,0,0,0,.11.7.49.49,0,0,0,.24.36,3.2,3.2,0,0,1-.16.65.81.81,0,0,1-.25.35.83.83,0,0,1-.37.15l-.53.09a.9.9,0,0,1-.42,0,.46.46,0,0,1-.26-.26,1.84,1.84,0,0,1-.13-.57,8.66,8.66,0,0,1,0-1v-7l-.92.14v2.21q0,1,0,2a13.23,13.23,0,0,1-.21,2,9.91,9.91,0,0,1-.54,1.87,6.67,6.67,0,0,1-1,1.73q.19-.53.33-1t.25-1c.07-.32.13-.66.18-1s.08-.74.11-1.17,0-.9.06-1.42,0-1.11,0-1.78Z"/><path class="cls-1" d="M119.34,294.45l.86.28a.48.48,0,0,1-.11.26.5.5,0,0,1-.23.15l-.1.23-.11.23,1.44-.21c0-.19-.09-.39-.13-.59a2,2,0,0,0-.2-.57,1.46,1.46,0,0,1,.52.05.72.72,0,0,1,.29.17.47.47,0,0,1,.12.24,1,1,0,0,1,0,.26.47.47,0,0,1-.08.22,1.17,1.17,0,0,1-.15.16l1.66-.25-.11.17-2.76.41a3.82,3.82,0,0,0,.55.38,3.67,3.67,0,0,0,.7.31,3.54,3.54,0,0,0,.81.16,2.84,2.84,0,0,0,.87-.07l-.14.33a3,3,0,0,0-.11.29c0,.09-.06.2-.08.31s-.05.23-.08.37l-.33,0v3.14l-.16,0h-.21a.88.88,0,0,1-.22,0,.43.43,0,0,1-.19-.12v-.59l-.89.13v.63a1.14,1.14,0,0,1-.4.24,1.63,1.63,0,0,1-.39.09v-3.35a1.53,1.53,0,0,1,.79.21l.89-.13.58-.3a3,3,0,0,1-.59-.2,2.9,2.9,0,0,1-.6-.36,2.7,2.7,0,0,1-.54-.57,3.12,3.12,0,0,1-.42-.84l-.55.08c-.11.24-.23.47-.37.71a6.32,6.32,0,0,1-.46.69,5.17,5.17,0,0,1-.58.64,4.64,4.64,0,0,1-.74.57l.18.09.16.09.84-.12.8-.51v3.38a.35.35,0,0,1-.15,0H119a.85.85,0,0,1-.24,0,.45.45,0,0,1-.19-.11v-.61l-.84.13v.71a1.23,1.23,0,0,1-.4.25,1.62,1.62,0,0,1-.41.1v-3.11l-.35.16-.38.14a13.38,13.38,0,0,0,1.3-1.35,6.57,6.57,0,0,0,1-1.66l-2.13.32-.07-.14,2.27-.34a7.06,7.06,0,0,0,.34-1.11l-.22,0a.41.41,0,0,1-.19-.1v-.38l-.79.12v.66a1.56,1.56,0,0,1-.4.25,1.64,1.64,0,0,1-.4.12V291.8a1.26,1.26,0,0,1,.45.09.92.92,0,0,1,.36.24l.79-.12.8-.52Zm-1.59-.34.79-.12v-1.83l-.79.12Zm0,6.43.84-.12V298.6l-.84.13Zm4.69-6.4a.49.49,0,0,1-.16,0h-.22l-.23,0a.45.45,0,0,1-.19-.1v-.4l-.87.13v.28a1.16,1.16,0,0,1-.41.22,1.91,1.91,0,0,1-.4.08v-3a1.14,1.14,0,0,1,.46.07.84.84,0,0,1,.34.22l.87-.13.8-.45Zm-1.67-.5.87-.13v-1.8l-.87.13Zm0,6.45.89-.13v-1.83l-.89.13Z"/><path class="cls-1" d="M132.54,297.89q-.33.33-.63.69a5.34,5.34,0,0,0-.62,1,5.22,5.22,0,0,1-.81-1.23,11,11,0,0,1-.62-1.6,17.59,17.59,0,0,1-.45-1.79q-.18-.93-.28-1.82a18.72,18.72,0,0,1-.29,2.05,10.6,10.6,0,0,1-.61,2,8.58,8.58,0,0,1-1.07,1.86,7.09,7.09,0,0,1-1.67,1.57,17,17,0,0,0,1.09-1.87,13.2,13.2,0,0,0,.89-2.31,18.08,18.08,0,0,0,.57-2.92,24.39,24.39,0,0,0,.11-3.7h1.46a.25.25,0,0,1,0,.17.85.85,0,0,1-.09.2.87.87,0,0,1-.13.17.13.13,0,0,1-.13.05l0,1a9.78,9.78,0,0,0,.44,2.24,10.28,10.28,0,0,0,.81,1.88,7.78,7.78,0,0,0,1,1.44A5.1,5.1,0,0,0,132.54,297.89Z"/><path class="cls-1" d="M549.28,87.63l.79-.12V85l1.09.08a.39.39,0,0,1-.27.43v1.92l.64-.09-.09.19-.55.08v1.84l.74-.38V85.81a1.36,1.36,0,0,1,.7.14c0-.16.07-.34.1-.53s.06-.38.1-.56l.74.78-.44.35a4.48,4.48,0,0,1-.41.26v1.59l.73-.11-.09.2-.64.09v1.53l.88-.13v-5l1.08.15a1.45,1.45,0,0,1-.1.3.5.5,0,0,1-.17.21v4.24l.78-.12V87.7l-.59.09-.07-.18.66-.1v-1.8l-.6.09-.07-.18.66-.1v0l.83-.45v4.82a1.21,1.21,0,0,1-.42,0,.92.92,0,0,1-.41-.12v-.39l-.78.12v1.26l.51-.08c0-.1.08-.2.11-.3l.1-.33.94.87a.4.4,0,0,1-.16.24l-.21.11a9.52,9.52,0,0,1-.51,1,8.23,8.23,0,0,1-.56.81,3.74,3.74,0,0,0,1.77.21l-.19.3-.18.3c-.06.11-.12.22-.17.35s-.12.28-.19.46a4.77,4.77,0,0,1-1-.35,4.15,4.15,0,0,1-.79-.51,6,6,0,0,1-1.29.94,13.29,13.29,0,0,1-1.33.61l1-.89a9.51,9.51,0,0,0,1.1-1.17,4.26,4.26,0,0,1-.85-2.1l-.68.1-.07-.18,1.79-.27V89.63l-.88.13v.41a1.15,1.15,0,0,1-.38.26,1.34,1.34,0,0,1-.42.12V89.1l-.75.9v4.23a1.58,1.58,0,0,1,0,.38,1.19,1.19,0,0,1-.17.37,1.27,1.27,0,0,1-.32.32,1.45,1.45,0,0,1-.52.21c0-.11,0-.22,0-.32a1.13,1.13,0,0,0-.07-.31,1.12,1.12,0,0,0-.18-.31,1.41,1.41,0,0,0-.35-.3l.66-.07A.19.19,0,0,0,550,94a1.18,1.18,0,0,0,0-.28V91l-.38.46a.8.8,0,0,1-.17.53l-.38-1.68.94-.48V87.69l-.72.11Zm4.35,5q.26-.39.5-.83a7.88,7.88,0,0,0,.43-1l-2.22.33a4.05,4.05,0,0,0,.58.84A4,4,0,0,0,553.62,92.67Z"/><path class="cls-1" d="M559.66,87.76l.32,0a5.12,5.12,0,0,0,.79-1.29l-1.22.18a4,4,0,0,1,0,.61,3.3,3.3,0,0,1-.06.56,1.94,1.94,0,0,1-.15.44.88.88,0,0,1-.21.29.39.39,0,0,1-.3.12.37.37,0,0,1-.22-.13,1,1,0,0,1-.16-.27,1.92,1.92,0,0,1-.09-.3,8.4,8.4,0,0,0,.54-1,6,6,0,0,0,.42-1.21,4.13,4.13,0,0,1,.18.64l1.87-.28V84.87l-2.62.39-.07-.2,2.69-.4v-1.4l1.21.1a.74.74,0,0,1-.13.28.43.43,0,0,1-.19.13v.75l2.85-.42-.08.22-2.78.41V86l1.82-.27.22-.83.94,1.17a.37.37,0,0,1-.17.21.33.33,0,0,1-.23,0l-1.14.9.32-1.25-2,.29-1.6,1.43.82-.12.81-.15c.12-.17.22-.34.32-.51a3.78,3.78,0,0,0,.24-.5l1,.9a.36.36,0,0,1-.16.19.7.7,0,0,1-.25.05l-.64.51-.71.56-.75.56a7.9,7.9,0,0,1-.75.48l3-.49q-.13-.24-.27-.47a3,3,0,0,0-.3-.4,4.78,4.78,0,0,1,.79.14,1.77,1.77,0,0,1,.52.23,1,1,0,0,1,.31.34,1.24,1.24,0,0,1,.14.45,1.44,1.44,0,0,1-.11.77,1.68,1.68,0,0,1-.39.55l-.23-.59a7.65,7.65,0,0,0-.32-.72l-.64.27-.64.24v2.46a1.86,1.86,0,0,1,0,.41,1.24,1.24,0,0,1-.53.76,1.77,1.77,0,0,1-.58.24c0-.14,0-.27,0-.39a.88.88,0,0,0-.11-.32.83.83,0,0,0-.25-.26,1.84,1.84,0,0,0-.44-.2l.82-.08c.14,0,.22-.07.24-.16a1.61,1.61,0,0,0,0-.3V90.3l-.87.31-.87.31a.64.64,0,0,1-.2.46l-.34-1.52.73-.12q.47-.37.93-.82t.87-.93l-.76.35-.75.3a.71.71,0,0,1-.18.44Zm1.44,3.91a.65.65,0,0,1-.15.24.51.51,0,0,1-.25.14l-.42.51q-.22.27-.47.53t-.56.54a6.36,6.36,0,0,1-.68.52q.18-.28.38-.66c.14-.25.27-.51.4-.78s.25-.55.37-.83.22-.57.31-.85Zm3.06,1.53c-.07-.18-.16-.38-.26-.6s-.22-.44-.35-.67-.27-.45-.42-.66a4.2,4.2,0,0,0-.46-.55,3.84,3.84,0,0,1,1.44.29,1,1,0,0,1,.64.87,1.07,1.07,0,0,1,0,.4,1.37,1.37,0,0,1-.14.36,2.14,2.14,0,0,1-.21.31Z"/><path class="cls-1" d="M568.12,82.94l2.45-.36.78-.5v3.81a.62.62,0,0,1-.2,0,.94.94,0,0,1-.25,0,.9.9,0,0,1-.26-.08.57.57,0,0,1-.22-.19v-.4l-1.09.16-.24,2.29,1.46-.22.95-.48-.12,2.52q0,.71-.1,1.21a2.78,2.78,0,0,1-.24.85,1.6,1.6,0,0,1-.46.57,2.69,2.69,0,0,1-.78.39,3.27,3.27,0,0,0-.05-.53.66.66,0,0,0-.2-.36,1.12,1.12,0,0,0-.43-.23,5,5,0,0,0-.78-.15l1.5-.13a.49.49,0,0,0,.31-.1.6.6,0,0,0,.18-.25,1.4,1.4,0,0,0,.08-.39c0-.15,0-.32,0-.51l.08-2.19-1.45.21,0,.49q-.47.39-.86-.32l.33-3.18A1.39,1.39,0,0,1,569,85a2.12,2.12,0,0,1,.37.19l1.11-.17V82.81l-2.22.33Zm4.76-1.39,1.31.13a.94.94,0,0,1-.11.32.56.56,0,0,1-.21.19v9.38a1.19,1.19,0,0,1-.49.39,1.52,1.52,0,0,1-.5.12Z"/><path class="cls-1" d="M577.12,81.85l.92-.14v-.93l.9.05a.51.51,0,0,1-.07.21.56.56,0,0,1-.13.14v.42l.44-.07v-1l.92.08a.7.7,0,0,1-.07.19.46.46,0,0,1-.13.13v.47l1.11-.17-.1.21-1,.15V82a.48.48,0,0,1-.17.15l-.21.1-.21.06-.14,0v-.62l-.44.06v.51a.42.42,0,0,1-.14.15l-.19.1.17,0a.65.65,0,0,1-.08.19.26.26,0,0,1-.15.1l0,.12,1.55-.23.74-.5-.08,2.49a1.84,1.84,0,0,1-.12.64,1.28,1.28,0,0,1-.25.38.83.83,0,0,1-.29.2l-.27.09a3.78,3.78,0,0,0,0-.4.67.67,0,0,0-.1-.25v.09l-.12,0-.18,0-.19,0a.3.3,0,0,1-.15-.08v-.39l-.51.08v.54a1.39,1.39,0,0,1-.32.19,1.06,1.06,0,0,1-.33.08V84.25l-.31.42q-.16.21-.36.41a8.82,8.82,0,0,0,.42-1.24,11.51,11.51,0,0,0,.29-1.5l.36.11v-.54l-.85.13Zm5.41,4.09-.81.24-.76.23v1l2.49-.37-.09.2-2.4.36v1l2.89-.43-.1.21-2.79.41v.61a1.72,1.72,0,0,1-.31,1,1.53,1.53,0,0,1-1,.57,4,4,0,0,0,0-.42.57.57,0,0,0-.14-.29.86.86,0,0,0-.32-.21l-.57-.21,1.17-.1a.38.38,0,0,0,.26-.1.57.57,0,0,0,.08-.37V89l-2.92.43-.07-.19,3-.44v-1l-2.62.39L577.4,88l2.69-.4v-.88q-.57.18-1.15.32a9.37,9.37,0,0,1-1.24.22q.71-.26,1.31-.55t1.09-.57q.49-.28.9-.54l.74-.5Zm-3.1-.74h0a.22.22,0,0,0,.17,0,.27.27,0,0,0,.09-.11.56.56,0,0,0,0-.15,1.48,1.48,0,0,0,0-.15l0-1.77-1.61.24a3.45,3.45,0,0,1-.15.33c-.05.1-.11.2-.17.3l.21,0a.58.58,0,0,1,.18.07l.56-.08.61-.29ZM578.29,85l.51-.08v-.83l-.51.08Zm5.66-.86c-.09.19-.18.39-.26.6a7.33,7.33,0,0,0-.25.76.48.48,0,0,1-.19,0,1.53,1.53,0,0,1-.33-.2,3.7,3.7,0,0,1-.41-.36,3.1,3.1,0,0,1-.43-.54,5.29,5.29,0,0,1-1.67,1.27,8.15,8.15,0,0,0,1.37-1.86,4.39,4.39,0,0,1-.2-.64,5.67,5.67,0,0,1-.12-.76c-.12.27-.25.53-.39.79s-.29.49-.44.71c.06-.2.12-.43.18-.7s.12-.56.18-.88.11-.64.17-1,.1-.68.14-1l1,.29a.55.55,0,0,1-.1.21.41.41,0,0,1-.17.11l-.11.33c0,.12-.08.24-.14.36l2.22-.33-.1.2-.53.08a6,6,0,0,1-.78,2.11,2.47,2.47,0,0,0,.63.36A2,2,0,0,0,583.94,84.12Zm-2.43-1.92a4,4,0,0,0,.24.49,3,3,0,0,0,.31.44,7.48,7.48,0,0,0,.47-1.49l-.84.13Z"/><path class="cls-1" d="M689.38,450.64l.74-.11.77-.5v4.28l1-.76-1.53,2.64a1.24,1.24,0,0,1,0,.25.34.34,0,0,1-.1.19l-.55-1.41.34-.25v-4.23l-.63.09Zm1.07-1.76-.12-.52c0-.21-.1-.41-.16-.62l-.18-.6-.15-.46a1.29,1.29,0,0,1,.37,0,1.61,1.61,0,0,1,.43.17,1.34,1.34,0,0,1,.38.32,1,1,0,0,1,.21.5,1.22,1.22,0,0,1,0,.55,1.12,1.12,0,0,1-.2.39.72.72,0,0,1-.28.22A.38.38,0,0,1,690.45,448.88Zm1.08-1.92,4.46-.66-.09.19-2.15.32-.24,1.93,1-.14h0l.89-.51v2.87l.85-.13-.09.2-4.78.71-.07-.18,1.09-.16.29-2.35-.72.11-.08-.16.83-.12.24-1.93-1.32.2Zm4.16,9a2.2,2.2,0,0,1-.44,0,1.2,1.2,0,0,1-.43-.13v-.35l-2,.3v.55a1.4,1.4,0,0,1-.41.27,2.45,2.45,0,0,1-.43.14v-4.13a1.14,1.14,0,0,1,.47.08l.37.19h0l2-.3.87-.54Zm-2.88-.36,2-.3v-2.54l-2,.3Zm.39-4.35,1.27-.19v-2.3l-1,.14Z"/><path class="cls-1" d="M698.77,449.59l1.93-.29-.11-.57q-.06-.3-.13-.6c0-.2-.09-.39-.14-.58s-.1-.35-.15-.5a2.26,2.26,0,0,1,.52.09,1.45,1.45,0,0,1,.43.21,1,1,0,0,1,.29.35,1.12,1.12,0,0,1,.11.51,1.1,1.1,0,0,1-.2.65,1.27,1.27,0,0,1-.46.42l1.87-.28.34-2.57,1.19.48a.73.73,0,0,1-.15.33.54.54,0,0,1-.22.13l-.95,1.59,2.54-.38-.09.2-6.55,1Zm.27-2.92,2.79-.41-.2-.81c-.07-.29-.14-.53-.2-.72a1.66,1.66,0,0,1,.89.11.62.62,0,0,1,.3.56,1,1,0,0,1,0,.44,1,1,0,0,1-.21.34l2.73-.4-.09.2-5.89.87Zm5.15,8.28L704,455a1,1,0,0,1-.25,0,1,1,0,0,1-.27-.07.55.55,0,0,1-.23-.16v-.37l-2.5.37v.4a1.51,1.51,0,0,1-.46.3,1.75,1.75,0,0,1-.47.12v-5.21a1.25,1.25,0,0,1,.51.06,1.8,1.8,0,0,1,.42.21h0l2.53-.38.91-.52Zm-3.44-2.32,2.5-.37v-1.76l-2.5.37Zm0,2,2.5-.37v-1.78l-2.5.37Z"/><path class="cls-1" d="M708,447.7l.81-.12.81-.5v3.87l1-1.08-1.43,3.26a1.07,1.07,0,0,1,0,.23.34.34,0,0,1-.1.18l-.66-1.31.31-.33v-4.14l-.7.1Zm1-1.69q0-.22-.11-.51l-.14-.61c0-.21-.1-.41-.15-.6s-.1-.34-.14-.46a1.22,1.22,0,0,1,.35,0,1.45,1.45,0,0,1,.41.17,1.29,1.29,0,0,1,.36.32,1,1,0,0,1,.2.5,1.25,1.25,0,0,1,0,.54,1,1,0,0,1-.2.38.74.74,0,0,1-.29.21A.39.39,0,0,1,708.95,446Zm3.59,4.22a.43.43,0,0,1-.38.32c-.13.29-.29.61-.47.94s-.37.65-.59,1a10.37,10.37,0,0,1-.67.89,4.85,4.85,0,0,1-.7.69l.36-.75c.16-.33.32-.71.48-1.12s.32-.84.46-1.3a8.61,8.61,0,0,0,.32-1.29Zm1.66-1.42-.18.05h-.23l-.24-.05a.55.55,0,0,1-.21-.12v-.51l-1.68.25V449a1.42,1.42,0,0,1-.43.28,1.62,1.62,0,0,1-.44.11V444a1.58,1.58,0,0,1,.48.05,2.39,2.39,0,0,1,.39.16l1.71-.25.84-.43Zm-2.55-.57,1.68-.25V444.2l-1.68.25Zm2.34,5-.22-.81q-.13-.49-.29-1t-.32-1a7.72,7.72,0,0,0-.32-.83,3.94,3.94,0,0,1,.79.49,4.52,4.52,0,0,1,.59.56,2.82,2.82,0,0,1,.38.57,2,2,0,0,1,.18.49,2.27,2.27,0,0,1,0,.64,1.36,1.36,0,0,1-.15.49,1,1,0,0,1-.28.32A.87.87,0,0,1,714,453.23Z"/><path class="cls-1" d="M718.55,446.49a1.06,1.06,0,0,1-.35.2l-.34.08V443a1.27,1.27,0,0,1,.83.26h0l1.46-.22.84-.5v3.64a.52.52,0,0,1-.17,0h-.23a.83.83,0,0,1-.24-.06.53.53,0,0,1-.21-.15v-.35l-1.46.22v.45l-.13.11,1.2,0a.52.52,0,0,1-.09.32.4.4,0,0,1-.22.14l0,.73.72-.11.92-.55-.1,3.68a2.11,2.11,0,0,1-.33,1.22,1.78,1.78,0,0,1-1,.62,3.8,3.8,0,0,0,0-.45.79.79,0,0,0-.12-.33.77.77,0,0,0-.26-.24,2.15,2.15,0,0,0-.46-.19l.94,0c.06,0,.12-.05.2-.16a1,1,0,0,0,.13-.48l.11-2.93-.71.11a14.75,14.75,0,0,1-.16,1.66,6.26,6.26,0,0,1-.37,1.37,5.18,5.18,0,0,1-.67,1.19,7.09,7.09,0,0,1-1.07,1.11q.33-.68.58-1.27a11.2,11.2,0,0,0,.42-1.19,9.12,9.12,0,0,0,.27-1.26,13.36,13.36,0,0,0,.13-1.47l-1,.15-.07-.18,1.08-.16Q718.56,447.23,718.55,446.49Zm.13-.75,1.46-.22v-2.27l-1.46.21Zm3.92,5.15c.1,0,.18-.06.24-.2a1.08,1.08,0,0,0,.09-.46v-8.68l1.14.1a.41.41,0,0,1-.07.38.4.4,0,0,1-.24.15l.06,8a3.37,3.37,0,0,1-.1.92,1.51,1.51,0,0,1-.28.56,1.07,1.07,0,0,1-.42.31,3.15,3.15,0,0,1-.52.17c0-.11,0-.22,0-.33a.89.89,0,0,0-.09-.33.84.84,0,0,0-.27-.31,2,2,0,0,0-.56-.26Zm-1-7.3,1.1.08a.43.43,0,0,1-.07.28.27.27,0,0,1-.22.16v5.31a1,1,0,0,1-.42.35,1.89,1.89,0,0,1-.4.13Z"/><path class="cls-3" d="M161.93,111.5l-2.19,25.18,3.14-.43-.55,6.29-33.63,4.61.55-6.3,6.14-.84,3.94-19.2-6.72.92.55-6.3,7.5-1,2.25-10.94-9.39,1.29.55-6.3,31.37-4.3-.55,6.3-15.63,2.15L147,113.55ZM155,118.67l-9.32,1.28-3.94,19.2,11.61-1.59Z"/><path class="cls-3" d="M174.93,115.4l1.52-.21-2.29,26.26-6.31.87,2-22.54-1.72.24-.59-5.8,1.75-.24,3.64-8.12-3.61.5-.59-5.8,1.75-.24,3.81-8.48,6.75-.93-6.49,14.4,5.3-.73Zm26.55-11.8-.53,6.09-4.83.66-2.46,28.29L184.07,140l-.86-5,4-.55,2-23.08L180,112.57l.53-6.09Zm.43-14.91-.53,6.09-18.5,2.54.53-6.09Z"/><path class="cls-3" d="M214.44,108.77l-1.9,21.86.81-.11-1.44,5.08-9.59,1.32,2-23.56,3.85-.53-1.62,18.62.81-.11,1.9-21.86-5.67.78.47-5.42,5.67-.78.68-7.78-.37.05-.84,5-4.52.62,0-4.14.84-.12,1.73-10.34,4.49-.62-.8,4.59L220.38,90,219.95,95l-4.36.6-.68,7.78,4.63-.63-.47,5.42Zm4.31,2.62-2,23.56-3.82.52,2-23.56Zm8.44,9.21a33,33,0,0,1-4,8.71,26.3,26.3,0,0,1-5.82,6.22l.79-9.07a30.46,30.46,0,0,0,1.9-2.5,20.19,20.19,0,0,0,1.47-2.58,20.78,20.78,0,0,0,1.11-2.86,32.41,32.41,0,0,0,.83-3.36l-4.44.61.55-6.3,4.75-.65q.08-.54.13-1.08l.09-1.08,1-11-3.82.52.55-6.3,3.82-.52.41-4.67,5.23-.72-.41,4.67,6.55-.9-1.69,19.43.95-.13-.55,6.3-7.87,1.08c-.09.5-.18,1-.28,1.48s-.2,1-.31,1.41l4-.55,1.64,11.48,1.62-.22-1.08,5.17-5.1.7ZM230.72,95l-1,11.52-.14,1.62,1.42-.19,1.14-13.13Z"/><path class="cls-3" d="M240.25,132.32l2.5-28.77-1.62.22-.33-7.38,1.62-.22,5.28-14.7,6.15-.84-6.16,17.5.88-.12-2.92,33.58Zm8.08-4.72-.69-5.12,1.45-.2,2.59-20.55,5.57-.76L254,126.82ZM251,97.88l-.46-5.09,1.45-.2L256,80.53l6-.83L261,82.86,274.81,81l-1.3,14.89-5.67.78.75-8.6-9.83,1.35-2.65,7.79Zm4.5,32.22-.7-5.72,1.79-.25,2.73-31.41,6.08-.83-3.25,37.3Zm9.12-4.73,1.23-25.58,5.54-.76-1,20.33,1.45-.2-1.61,5.44Z"/><path class="cls-4" d="M231.47,278.5A62.86,62.86,0,0,1,217,274.84,40.7,40.7,0,0,1,205.48,268a85.06,85.06,0,0,1-12.84,10,93.93,93.93,0,0,1-15.24,7.79L178.64,271a73.19,73.19,0,0,0,10.11-5,56.27,56.27,0,0,0,8.9-6.59,66,66,0,0,1-7.46-13.63,117.8,117.8,0,0,1-5.42-17.15L196.71,227a108.1,108.1,0,0,0,4.82,12.54,54,54,0,0,0,5.58,9.53,104.65,104.65,0,0,0,7.38-11.25q3.59-6.25,7.24-14.25l12.05-1.65a196.33,196.33,0,0,1-8.63,19.13A114.19,114.19,0,0,1,215,257.15a30.31,30.31,0,0,0,8.07,4.26,45.36,45.36,0,0,0,9.6,2.15Zm-48.34-70.56,7-1,.48-5.77L202,199.66l-.48,5.77,18.76-2.57.48-5.77,11.37-1.56-.48,5.77,7.05-1-.85,10.18-7.05,1-.57,6.79-11.37,1.56.57-6.79-18.76,2.57-.57,6.79L188.7,224l.57-6.79-7,1Z"/><path class="cls-4" d="M248,239l-3.1,37.12-5.4.74,3.1-37.12Zm14.7-48-.53,6.34,7.79-1.07-.79,9.39q-1.66.34-3.68.62l-4.12.56-.37,4.41,7.79-1.07-.78,9.28-7.79,1.07-.32,3.85,7.79-1.07-.79,9.5-7.79,1.07-3.41,40.74-8.87,1.22,3.41-40.74-7.79,1.07.79-9.51,7.79-1.07.32-3.85-7.79,1.07.78-9.28,7.79-1.07.37-4.41-4.18.57q-2.08.28-3.6.38l.79-9.39,7.79-1.07.53-6.34Zm3.44,45.5-3.1,37.12-5.34.73,3.1-37.12Zm16.12,35,2.34-28-5.57.76a82.28,82.28,0,0,1-2,11,46.23,46.23,0,0,1-2.93,8.23,27.59,27.59,0,0,1-3.86,6.07,24.6,24.6,0,0,1-4.84,4.35l1.21-14.48a12.39,12.39,0,0,0,2.46-5,59.19,59.19,0,0,0,1.58-8.94l-4.27.58.95-11.32,4.38-.6,1.85-22.07-3.64.5.88-10.52,3.64-.5.93-11.09,8.36-1.15-.93,11.09,5.46-.75.93-11.09,8.93-1.22-.93,11.09,2.9-.4-.88,10.52-2.9.4L294.52,231l3.58-.49-.95,11.32-3.58.49-2.34,28ZM280.13,233l5.46-.75,1.85-22.07L282,211Z"/><path class="cls-4" d="M301.35,268.93l4.33-51.71,5.34-.73L306.7,268.2Zm7.16-1,4.63-55.33-7.33,1,.83-10,7.33-1,.68-8.15-7.16,1,.78-9.28,24.34-3.33-3.51,9.65-4.43.61-.68,8.15,7.39-1-.83,10-7.39,1-4.63,55.33Zm11.88-1.63,4.33-51.71,5.29-.72-4.33,51.71Zm23.2-3.18L345,246.28l-15.35,2.1.88-10.52,15.35-2.1,4.75-56.81,10.46-1.43-4.75,56.81,3.75-.51-.88,10.52-3.75.51-1.41,16.86Zm-6.76-30.73-4.73-20.72,9.38-1.29,3.26,13.42,1.76-.24-2.11,7.78Zm1.89-26L334,185.82l9.38-1.29,3.27,13.31,1.76-.24-2.11,7.78Z"/><path class="cls-4" d="M389.78,183.43,388.9,194l-4.55.62-1.3,15.5,4.72-2.66-1,11.77L382.06,222l-3,36.44L367.24,260l-1.39-9.54,3.64-.5,1.84-22L366.13,231l1-11.88,5.19-2.95L374,196l-5,.69.88-10.52,5-.69.79-9.51L386,174.55l-.79,9.51Zm34.72,16.38a92.26,92.26,0,0,1-4.77,17.71,93.24,93.24,0,0,1-8.09,16.38,29.14,29.14,0,0,0,4.54,3.18,23.1,23.1,0,0,0,5,2.11l-1.11,13.24a26.07,26.07,0,0,1-8.77-2.66,29.42,29.42,0,0,1-7.46-5.52,55.43,55.43,0,0,1-8.46,7.7,41,41,0,0,1-9.31,5.13l1.11-13.24a39.36,39.36,0,0,0,5.41-3.48,42.79,42.79,0,0,0,4.92-4.42,53.63,53.63,0,0,1-6.6-18.56l9.72-1.33a35,35,0,0,0,4.44,10.13,66.15,66.15,0,0,0,7-14.6l-22.18,3,.85-10.18,11.43-1.57,1-11.43-12.79,1.75.88-10.52L404,180.92l.75-8.94,9.84-1.35-.75,8.94,12.79-1.75-.88,10.52-12.79,1.75-1,11.43Z"/><path class="cls-5" d="M261,336.95l-72.87-41.86,22.25-2.74q4.56-.56,12.61,1.78a66.79,66.79,0,0,1,14.66,6.14l4.4,2.53a26.72,26.72,0,0,1,7.9,6.32q2.48,3.2-3.52,3.94l5.52-.68a16.81,16.81,0,0,1,6.33.89,33.5,33.5,0,0,1,7.37,3.09l28.69,16.48-11.1,1.37-24.29-14a33.41,33.41,0,0,0-7.38-3.09,16.88,16.88,0,0,0-6.31-.89l-5.57.69,32.41,18.62ZM231.6,312.34l5.57-.69q2.27-.28,1.51-1.87t-4.06-3.48l-8.12-4.67a33,33,0,0,0-7.33-3.06,16.87,16.87,0,0,0-6.29-.88l-5.57.69Z"/><path class="cls-5" d="M307.79,314.25,285.54,317l8.12,4.67a33.27,33.27,0,0,0,7.28,3,16.74,16.74,0,0,0,6.34.89l5.57-.69q5.52-.68-2.52-5.3l5.57-.69q14.86,9.45,5.07,10.65l-11.15,1.37q-4.56.56-12.59-1.77A66.69,66.69,0,0,1,282.57,323l-24.29-14q-6.72-3.86-8.2-7t3.05-3.7L264.28,297q4.56-.56,12.63,1.79A67.23,67.23,0,0,1,291.62,305Zm-30.37-1.93,11.15-1.37-8-4.62a33.4,33.4,0,0,0-7.38-3.09,16.88,16.88,0,0,0-6.31-.89q-2.29.28-1.54,1.86t4.09,3.49Z"/><path class="cls-5" d="M323.82,301l-5.52.68q-8.77-4.58-13.7-4-2.29.28-1.54,1.86t4.09,3.49l24.29,14a33.27,33.27,0,0,0,7.28,3,16.74,16.74,0,0,0,6.34.89q4.92-.61-2.47-5.31l5.52-.68q15.49,9.37,5.07,10.65l-5.57.69q-4.56.56-12.59-1.77a66.69,66.69,0,0,1-14.68-6.15l-24.29-14q-6.72-3.86-8.2-7t3.05-3.7l5.57-.69Q307,291.74,323.82,301Z"/><path class="cls-5" d="M379.86,322.32l-11.1,1.37-56.7-32.57,11.1-1.37,16.24,9.33q-7.47-4.74-8.74-7.42t3.65-3.28l5.52-.68L356.08,297,345,298.4q-2.29.28-1.56,1.85t4,3.46Z"/><path class="cls-5" d="M372.08,283.73l56.7,32.57-11.1,1.37L409.57,313q7.47,4.74,2.55,5.35l-5.57.69q-4.56.56-12.59-1.77a66.69,66.69,0,0,1-14.68-6.15l-40.53-23.28,11.1-1.37,40.53,23.28a33.27,33.27,0,0,0,7.28,3,16.74,16.74,0,0,0,6.34.89q2.32-.29,1.55-1.86t-4-3.45L361,285.1Z"/><path class="cls-5" d="M368.47,278.57l-8.12-4.67,11.1-1.37,8.12,4.67Zm64.75,37.19-56.7-32.57,11.1-1.37,56.7,32.57Z"/><path class="cls-5" d="M381.5,271.3l11.1-1.37,16.17,9.29,5.57-.69,8.12,4.67-5.57.69L449.3,302.5a30.68,30.68,0,0,0,7.75,3.22,17.31,17.31,0,0,0,5.35.78l.52-.06L471,311.1l-5.57.69q-4.59.56-12.6-1.77a66.8,66.8,0,0,1-14.66-6.15l-32.41-18.62-5.58.69-8.12-4.67,5.58-.69Z"/><path class="cls-5" d="M508.81,306.46l-11.1,1.37-40.46-23.24a33.39,33.39,0,0,0-7.39-3.09,16.88,16.88,0,0,0-6.31-.89q-2.29.28-1.54,1.86t4.09,3.49l40.46,23.24-11.1,1.37L418.77,278l11.1-1.37,8.12,4.67q-3.76-2.4-4.38-3.72t1.83-1.63l5.58-.69q5.65-.7,14.07,2.27-1.58-1.82-.92-2.89t3.53-1.43l5.52-.68q4.56-.56,12.62,1.77a66.81,66.81,0,0,1,14.77,6.19l40.46,23.24-11.15,1.37-40.46-23.24a33.63,33.63,0,0,0-7.35-3.08,16.79,16.79,0,0,0-6.29-.91q-2.29.28-1.54,1.86t4.09,3.49Z"/><path class="cls-5" d="M544.55,285.12l-22.25,2.74,8.12,4.67a33.26,33.26,0,0,0,7.28,3,16.74,16.74,0,0,0,6.34.89l5.57-.69q5.52-.68-2.52-5.3l5.57-.69q14.86,9.45,5.07,10.65l-11.15,1.37Q542,302.37,534,300a66.71,66.71,0,0,1-14.68-6.15l-24.29-14q-6.72-3.86-8.2-7t3.05-3.7L501,267.87q4.56-.56,12.63,1.79a67.25,67.25,0,0,1,14.71,6.17Zm-30.37-1.93,11.15-1.37-8-4.62a33.41,33.41,0,0,0-7.38-3.09,16.89,16.89,0,0,0-6.31-.89q-2.29.28-1.54,1.86t4.09,3.49Z"/><path class="cls-5" d="M573.27,298.53,516.56,266l11.1-1.37,8.12,4.67q-3.76-2.4-4.38-3.72t1.83-1.63l5.57-.69q4.56-.56,12.63,1.79a67.22,67.22,0,0,1,14.71,6.17l40.46,23.24-11.1,1.37-40.46-23.24a33.39,33.39,0,0,0-7.39-3.09,16.88,16.88,0,0,0-6.31-.89q-2.29.28-1.54,1.86t4.09,3.49l40.46,23.24Z"/><path class="cls-5" d="M543.74,251.34l11.1-1.37L571,259.26l5.57-.69,8.12,4.67-5.57.69,32.41,18.62a30.7,30.7,0,0,0,7.75,3.22,17.3,17.3,0,0,0,5.35.78l.52-.06,8.12,4.67-5.57.69q-4.59.56-12.6-1.77a66.8,66.8,0,0,1-14.66-6.15L568,265.29l-5.58.69-8.12-4.67,5.58-.69Z"/><path class="cls-6" d="M129.18,74.45l19.49,10.94q2.77,1.55,2.51,2.56t-3.53,1.45l-6.61.9a20,20,0,0,1-6.32-.12,18.69,18.69,0,0,1-5.81-2.11l-5.58-3.13L129.9,84l5.58,3.13a9.47,9.47,0,0,0,2.93,1,10.18,10.18,0,0,0,3.14.14q1.36-.18,1.52-.77t-1-1.23L122.6,75.34Z"/><path class="cls-6" d="M144,76.32l6.61-.9a20.12,20.12,0,0,1,6.29.3,19.21,19.21,0,0,1,5.87,1.94l8.35,4.68q2.26,1.27,2,2.46t-3,1.55l-6.61.9a20.14,20.14,0,0,1-6.28-.29A19,19,0,0,1,151.33,85L143,80.34q-2.31-1.3-2-2.48T144,76.32Zm5.58,3.13,8.35,4.68a9.51,9.51,0,0,0,2.91,1,10.08,10.08,0,0,0,3.16.14q1.37-.19,1.52-.78t-1-1.22l-8.35-4.68a9.55,9.55,0,0,0-3-1,10.16,10.16,0,0,0-3.15-.15q-1.36.18-1.51.78T149.56,79.45Z"/><path class="cls-6" d="M157,72.63l-2.79-1.57,6.58-.89,2.79,1.57Zm22.26,12.49L159.79,74.18l6.58-.89,19.49,10.94Z"/><path class="cls-6" d="M188.51,83.86,169,72.93,175.6,72l2.79,1.57q-1.21-.82-1.07-1.32t1.59-.7l3.3-.45a20.16,20.16,0,0,1,6.29.3,19.21,19.21,0,0,1,5.87,1.95l13.91,7.8-6.58.89-13.91-7.8a9.55,9.55,0,0,0-3-1,10.14,10.14,0,0,0-3.15-.15q-1.36.18-1.51.78t1,1.24L195.09,83Z"/><path class="cls-6" d="M210.44,63.45l6.58-.89,19.49,10.94q2.26,1.27,2,2.46t-3,1.55l-6.61.9a20.17,20.17,0,0,1-6.28-.29,19,19,0,0,1-5.86-1.94L197.25,65.23l6.58-.89,19.49,10.94a9.52,9.52,0,0,0,2.91,1,10.09,10.09,0,0,0,3.16.14q1.38-.19,1.52-.78c.09-.4-.23-.8-1-1.22Z"/><path class="cls-6" d="M247.25,66.22l-3.27.44a10.6,10.6,0,0,0-5.91-1.14q-1.75.24-2,.68t.85,1.09q1.2.67,8.17,1.24a40.73,40.73,0,0,1,7.44,1,17.18,17.18,0,0,1,3.08,1.31q2.32,1.3,2,2.48t-3,1.55l-3.3.45a19,19,0,0,1-12.14-2.23l3.3-.45a10.38,10.38,0,0,0,5.87,1.14q1.74-.24,2-.68t-.85-1.09q-1.17-.66-8.15-1.24a40.19,40.19,0,0,1-7.45-1,17.25,17.25,0,0,1-3.07-1.31q-2.33-1.31-2-2.49t3-1.55l3.3-.45A20.16,20.16,0,0,1,247.25,66.22Z"/><line class="cls-7" x1="428.78" y1="447.35" x2="66.19" y2="236.19"/><line class="cls-7" x1="822.67" y1="396.23" x2="444.68" y2="451.68"/><polyline class="cls-7" points="162.17 291.64 539 240.16 543.91 239.49"/><line class="cls-2" x1="92.84" y1="154.04" x2="543.47" y2="92.86"/><line class="cls-7" x1="0.07" y1="221.26" x2="410.86" y2="163.75"/><line class="cls-7" x1="194.23" y1="401.65" x2="648.54" y2="666.13"/><line class="cls-8" x1="571.68" y1="749.38" x2="570.81" y2="748.89"/><line class="cls-9" x1="569.08" y1="747.9" x2="236.42" y2="558.41"/><line class="cls-8" x1="235.56" y1="557.92" x2="234.69" y2="557.43"/><path class="cls-10" d="M181.31,181.12,129.19,151,160,146.69l5.81,3.35-18.49,2.61,17.37,10L177,160.93l5.76,3.32L170.43,166l17.37,10,18.49-2.61,5.81,3.35Z"/><path class="cls-10" d="M170.76,149.34,164.95,146l12.31-1.74,5.81,3.35Zm46.31,26.73-40.56-23.41,12.31-1.74,40.56,23.41Z"/><path class="cls-10" d="M230.76,145l46.37,26.76q4.72,2.73,4.49,5.22t-5.23,3.19L264,181.93q-10.89,1.54-23.87-4.94l6.18-.87a19.4,19.4,0,0,0,11.88,2.46l6.18-.87q2.51-.35,2.65-1.59t-2.22-2.6l-11.62-6.71q5.09,3.46-.37,4.23l-6.18.87a35.87,35.87,0,0,1-12.09-.74,39.61,39.61,0,0,1-11.78-4.2l-17.37-10q-4.8-2.77-4.57-5.25t5.26-3.19Zm-6.5,5.09-6.18.87q-2.54.36-2.65,1.6t2.28,2.62l17.37,10a19.78,19.78,0,0,0,5.85,2.08,18,18,0,0,0,6.09.37q2.57-.36,2.67-1.6t-2.24-2.59Z"/><path class="cls-10" d="M295.83,152.49,271.16,156l5.81,3.35a19.78,19.78,0,0,0,5.85,2.08,18,18,0,0,0,6.09.37l6.18-.87q6.12-.86.37-4.19l6.18-.87q10.12,6.88-.74,8.41L288.54,166a35.87,35.87,0,0,1-12.09-.74,39.61,39.61,0,0,1-11.78-4.2l-17.37-10q-4.8-2.77-4.57-5.25t5.26-3.19l12.36-1.74a35.85,35.85,0,0,1,12.11.76,39.9,39.9,0,0,1,11.81,4.21Zm-30.48.13,12.36-1.74L272,147.55a19.86,19.86,0,0,0-5.93-2.11,18.09,18.09,0,0,0-6.06-.37q-2.54.36-2.65,1.6t2.28,2.62Z"/><path class="cls-10" d="M318.12,161.82l-40.56-23.41,12.31-1.74,5.81,3.35q-2.56-1.75-2.45-2.79T296,135.8l6.18-.87a35.85,35.85,0,0,1,12.11.76,39.9,39.9,0,0,1,11.81,4.21l28.94,16.7-12.31,1.74-28.94-16.7a19.86,19.86,0,0,0-5.93-2.11,18.09,18.09,0,0,0-6.06-.37q-2.54.36-2.65,1.6t2.28,2.62l28.94,16.7Z"/><path class="cls-8" d="M434.79,454.8h0c-2-.14-3.67-2.36-3.83-4.92h0c-.16-2.56,1.31-4.54,3.26-4.4h0c2,.14,3.67,2.36,3.83,4.92h0C438.21,453,436.74,454.95,434.79,454.8Z"/><path class="cls-8" d="M685.45,457.82h0c-2-.14-3.67-2.36-3.83-4.92h0c-.16-2.56,1.31-4.54,3.26-4.4h0c2,.14,3.67,2.36,3.83,4.92h0C688.87,456,687.4,458,685.45,457.82Z"/><path class="cls-11" d="M187.57,402.76h0c-2-.14-3.67-2.36-3.83-4.92h0c-.16-2.56,1.31-4.54,3.26-4.4h0c2,.14,3.67,2.36,3.83,4.92h0C191,400.92,189.52,402.9,187.57,402.76Z"/><path class="cls-11" d="M85.31,159.45h0c-2-.14-3.67-2.36-3.83-4.92h0c-.16-2.56,1.31-4.54,3.26-4.4h0c2,.14,3.67,2.36,3.83,4.92h0C88.73,157.61,87.26,159.59,85.31,159.45Z"/><path class="cls-11" d="M193.39,33.88h0c-1.54-.11-2.9-1.86-3-3.88h0c-.12-2,1-3.59,2.58-3.47h0c1.54.11,2.9,1.86,3,3.88h0C196.09,32.43,194.93,34,193.39,33.88Z"/><path class="cls-8" d="M228.05,558.89h0c-2-.14-3.67-2.36-3.83-4.92h0c-.16-2.56,1.31-4.54,3.26-4.4h0c2,.14,3.67,2.36,3.83,4.92h0C231.47,557.06,230,559,228.05,558.89Z"/><path class="cls-11" d="M549,242.29h0c-2-.14-3.67-2.36-3.83-4.92h0c-.16-2.56,1.31-4.54,3.26-4.4h0c2,.14,3.67,2.36,3.83,4.92h0C552.42,240.45,550.95,242.43,549,242.29Z"/><path class="cls-11" d="M414.55,167.11h0c-2-.14-3.67-2.36-3.83-4.92h0c-.16-2.56,1.31-4.54,3.26-4.4h0c2,.14,3.67,2.36,3.83,4.92h0C418,165.27,416.5,167.25,414.55,167.11Z"/><path class="cls-1" d="M136.33,373.69l-.16-.07-.21-.15a1.68,1.68,0,0,1-.22-.23,1.25,1.25,0,0,1-.18-.31l0-.4-3.73-2.11,0,.52a.51.51,0,0,1-.36.05,1.32,1.32,0,0,1-.37-.17l.42-10a2.67,2.67,0,0,1,.37.33,2.47,2.47,0,0,1,.31.43l3.76,2.12v0l.8,0Zm-4.48-3.44,3.73,2.11.35-8.43-3.73-2.11Zm3.86-2.48c-.11.17-.22.33-.31.49a3.83,3.83,0,0,0-.28.58,8.11,8.11,0,0,1-.63-.82,6.72,6.72,0,0,1-.57-1,2.32,2.32,0,0,1-.87.24,4.43,4.43,0,0,1-1-.06,5,5,0,0,0,.85-.44,3.68,3.68,0,0,0,.74-.63,8.26,8.26,0,0,1-.3-1.44,3.57,3.57,0,0,1-.95,1.17q.24-.69.46-1.57a14.47,14.47,0,0,0,.33-1.81l.85,1q-.07.32-.27.21l-.15.41.91.51.09-.29c0-.1.06-.2.09-.31l.79,1.41c0,.15-.05.24-.1.28s-.12,0-.22-.09a3.76,3.76,0,0,1-.68,1,5.1,5.1,0,0,0,.67.7C135.33,367.47,135.53,367.63,135.71,367.77Zm-1.45,3.76c-.1-.22-.21-.46-.32-.71s-.24-.49-.38-.74-.27-.49-.41-.72-.28-.44-.41-.63a7.83,7.83,0,0,1,.81.52,5.41,5.41,0,0,1,.57.47,2.74,2.74,0,0,1,.35.4,1.34,1.34,0,0,1,.17.31,1.27,1.27,0,0,1,.08.4,1.12,1.12,0,0,1,0,.37.63.63,0,0,1-.15.26A.25.25,0,0,1,134.26,371.53Zm-.26-2.07c0-.11-.07-.25-.13-.41l-.18-.53c-.06-.19-.13-.37-.2-.55l-.2-.51a3.48,3.48,0,0,1,.78.56,1.09,1.09,0,0,1,.34.68,1.23,1.23,0,0,1-.05.58A.3.3,0,0,1,134,369.46Zm-.51-5.22-.06.16-.07.15a6,6,0,0,0,.24.64c.09.2.18.38.28.56a2.81,2.81,0,0,0,.29-.45q.13-.25.25-.53Z"/><path class="cls-1" d="M141.4,366.39a.25.25,0,0,1,0,.16.39.39,0,0,1-.07.13.19.19,0,0,1-.11.06.12.12,0,0,1-.12-.06,11,11,0,0,1-.55,1.68l.2.2a.41.41,0,0,1-.05.35c-.07.07-.13.07-.19,0l-.27,6.75a.37.37,0,0,1-.38.16,1.18,1.18,0,0,1-.37-.13l.24-5.75a4.53,4.53,0,0,1-.41.53,3,3,0,0,1-.42.39l.37-1.11q.21-.63.4-1.35t.36-1.52a16.12,16.12,0,0,0,.25-1.6Zm.7,9.51a.22.22,0,0,0,.36-.07,1.75,1.75,0,0,0,.19-.66,2,2,0,0,1-.54.2,3.14,3.14,0,0,1-.63.08,3.38,3.38,0,0,1-.64,0,3.19,3.19,0,0,1-.57-.15l.56-.27.64-.32a7.37,7.37,0,0,0,.65-.39,3.34,3.34,0,0,0,.58-.49,1.69,1.69,0,0,0,0-.21,1.78,1.78,0,0,1-.45.26,3.44,3.44,0,0,1-.59.18,5,5,0,0,1-.64.1,3.2,3.2,0,0,1-.58,0c.17-.14.35-.27.54-.39s.38-.26.57-.4.37-.3.56-.47a3.64,3.64,0,0,0,.51-.59v-.14a1.88,1.88,0,0,1-.85.52,3,3,0,0,1-1.15.07,7.49,7.49,0,0,0,.91-.63,3,3,0,0,0,.75-1l-.37-.21v.29a.87.87,0,0,1-.73-.15l.08-1.84-.29.2-.3.16c.08-.12.17-.32.3-.58s.25-.55.38-.86.25-.65.35-1a6.93,6.93,0,0,0,.23-1l1,1c0,.15,0,.25-.08.29s-.14,0-.21-.05l-.1.21-.1.21,1.09.62.26-.66.76,1.51a.22.22,0,0,1,0,.14.17.17,0,0,1-.1.07.21.21,0,0,1-.13,0,.27.27,0,0,1-.13-.12.66.66,0,0,1-.3.23l-.46.19.77.44.74.12-.11,2.75a1.71,1.71,0,0,1-.39-.24,1.75,1.75,0,0,1-.36-.38v-.32l-1-.55-.12.21a1.54,1.54,0,0,1-.13.2,6.59,6.59,0,0,1,.36,1,8.75,8.75,0,0,1,.22,1.15c.15-.18.32-.4.48-.64a5.65,5.65,0,0,0,.44-.74l.71,1.45c0,.14-.09.2-.17.18a.35.35,0,0,1-.2-.19,2.2,2.2,0,0,1-.38.11l-.39.05c.06.24.14.5.23.76s.2.52.3.77a7.14,7.14,0,0,0,.34.68,3.51,3.51,0,0,0,.34.51,3,3,0,0,0-.44.22,1.37,1.37,0,0,0-.4.43,9,9,0,0,1-.34-1.34,12.41,12.41,0,0,1-.19-2h-.32a7.92,7.92,0,0,1,0,1.24,3.55,3.55,0,0,1-.19,1,1.08,1.08,0,0,1-.41.57.63.63,0,0,1-.66,0,3,3,0,0,0,0-.36,1.29,1.29,0,0,0-.09-.37,2,2,0,0,0-.23-.41,3.72,3.72,0,0,0-.43-.5Zm.17-8c-.08.14-.17.27-.25.4l-.27.37.1.12.1.14,1,.59.39-1Zm.06,3a4.9,4.9,0,0,0,.23-.61,7,7,0,0,0,.18-.75l-.79-.45-.06,1.55Zm1.14-.94a7.53,7.53,0,0,1-.16.75,3.35,3.35,0,0,1-.23.62l.9.51.06-1.55Z"/><path class="cls-1" d="M147.42,371.63l1.38.78.11-.39.1-.39.79,1.45a.33.33,0,0,1-.13.19.26.26,0,0,1-.17,0,8,8,0,0,1-.75,1.48l0,.43a3.13,3.13,0,0,1,.63.88,2.11,2.11,0,0,1,.22.88,1.08,1.08,0,0,1-.07.38.54.54,0,0,1-.15.21.43.43,0,0,1-.2.08.63.63,0,0,1-.21,0q0-.66-.09-1.29t-.12-1.13l-.22,5.27a.55.55,0,0,1-.35,0,1.3,1.3,0,0,1-.35-.16l.19-4.67a5.22,5.22,0,0,1-.46.39,1.8,1.8,0,0,1-.46.26,7.6,7.6,0,0,0,.43-.75q.22-.43.44-.91t.41-1c.13-.36.25-.72.37-1.09l-1.26-.71Zm1.5-.4a1,1,0,0,1-.06.36.52.52,0,0,1-.15.21.41.41,0,0,1-.2.09.63.63,0,0,1-.21,0q-.08-.65-.16-1.25t-.16-1.07a2.41,2.41,0,0,1,.71.84A2,2,0,0,1,148.93,371.23Zm3.11,3a.51.51,0,0,1-.11.24.21.21,0,0,1-.17.06q0,.85-.09,1.55t-.14,1.3l.59.54.2-4.88-1.62-.91-.23,5.44a.55.55,0,0,1-.35,0,1.36,1.36,0,0,1-.35-.16l.26-6.22a2.23,2.23,0,0,1,.67.75l1.62.91h0l.74.07-.25,6-.14-.06a1.18,1.18,0,0,1-.19-.14,1.46,1.46,0,0,1-.2-.22,1.68,1.68,0,0,1-.17-.28V378a.39.39,0,0,1-.12.12.16.16,0,0,1-.13,0l-.1,2.61a2.54,2.54,0,0,0,0,.39.27.27,0,0,0,.13.22l.15.08c.07,0,.15,0,.24-.18a3.6,3.6,0,0,0,.23-.6q.11-.36.19-.72c.06-.24.1-.42.14-.54,0,.18,0,.41,0,.69s0,.54,0,.82a5.13,5.13,0,0,0,.07.74.74.74,0,0,0,.21.46c0,.3-.13.49-.27.54a.61.61,0,0,1-.53-.1l-.55-.31a1.58,1.58,0,0,1-.34-.25,1,1,0,0,1-.22-.37,2.15,2.15,0,0,1-.11-.56,6.45,6.45,0,0,1,0-.83l0-1.17a3.61,3.61,0,0,1-.42.86,2.26,2.26,0,0,1-.54.56,2,2,0,0,1-.67.31,4.14,4.14,0,0,1-.81.12c.23-.22.45-.44.65-.66a5,5,0,0,0,.56-.73,5.26,5.26,0,0,0,.46-.92,7.55,7.55,0,0,0,.35-1.24,15.1,15.1,0,0,0,.22-1.69q.08-1,.09-2.26Z"/><path class="cls-1" d="M161,385.45l-.12-.07-.17-.12a1.46,1.46,0,0,1-.19-.17,1,1,0,0,1-.17-.25l.2-4.87-1.38-.78-.21,5a.29.29,0,0,1-.32.14,1,1,0,0,1-.35-.14l.1-2.42a.17.17,0,0,1-.21.06,7.21,7.21,0,0,1-.55,1.26,2.77,2.77,0,0,1-.65.8,2.28,2.28,0,0,1-.82.42,4.42,4.42,0,0,1-1,.15,6.32,6.32,0,0,0,1-.8,4.65,4.65,0,0,0,.83-1.15.7.7,0,0,1-.22,0l-.19-.1.14-3.46.8.69a.63.63,0,0,1-.06.19.14.14,0,0,1-.13.07l-.09,2.13a6.68,6.68,0,0,0,.24-.72,6.48,6.48,0,0,0,.17-.83l.8,1.17.14-3.33a1.42,1.42,0,0,1,.32.27,2,2,0,0,1,.32.46l.26.15.13-2-1.14-.64-.06-.23,3.23,1.83-.09.14-1-.59-.88,1.53,1,.56.68,0Zm-4.42-5.17a.7.7,0,0,1-.09.2.12.12,0,0,1-.14,0,4.68,4.68,0,0,1-.5,1,4.52,4.52,0,0,1-.58.7q.16-.71.32-1.45a13.52,13.52,0,0,0,.23-1.49Zm-1.13-2.36.44.25L156,375l.77.65a.35.35,0,0,1-.07.18.22.22,0,0,1-.13.06l-.11,2.61.32.18.17-4,.87.75c0,.17-.1.25-.22.24l-.05,1.27,1,.56-.08.14-.93-.52-.08,1.94,1,.57-.08.15-2.9-1.64Zm5.12,9.55q-.2-.68-.42-1.34t-.45-1.32a1.9,1.9,0,0,1-.34.57,1.41,1.41,0,0,1-.5.35,2,2,0,0,1-.67.14,4,4,0,0,1-.88-.07,3.59,3.59,0,0,0,.89-.39,2.12,2.12,0,0,0,.6-.56,2.62,2.62,0,0,0,.37-.78,6.25,6.25,0,0,0,.2-1c0-.4.08-.85.09-1.36s0-1.08,0-1.72l.86.77a.64.64,0,0,1-.08.2.21.21,0,0,1-.11.07q0,1.28-.12,2.22a5.79,5.79,0,0,1-.31,1.55c.27.24.52.48.74.72a3.15,3.15,0,0,1,.57.9,1.32,1.32,0,0,1,.12.53,1.1,1.1,0,0,1-.07.44.39.39,0,0,1-.21.24A.31.31,0,0,1,160.58,387.48Z"/><path class="cls-1" d="M163.78,379.5l2.14,1.21-.09.16-.68-.38-.12,2.9.7.39-.08.17-.63-.36-.12,2.75.47,0h.42a2.14,2.14,0,0,1-.32.29L165,387l-.54.32c-.19.11-.39.21-.59.3a1.12,1.12,0,0,1,0,.27.24.24,0,0,1-.12.15l-.32-2,.7.15.13-3.05-.52-.29-.05-.25.58.33.12-2.9-.55-.31Zm1.81,7.74,1.44.81.08-2-.61-.34,0,.48a.58.58,0,0,1-.35,0,1.22,1.22,0,0,1-.38-.16l.25-5.94a1.74,1.74,0,0,1,.4.34,2.71,2.71,0,0,1,.31.45l2,1.12.76,0-.25,5.93a1.45,1.45,0,0,1-.37-.25,2.52,2.52,0,0,1-.37-.4l0-.52-.58-.33-.08,2,1.55.87-.08.16-1.48-.83-.09,2.23,1.73,1-.08.16-4.51-2.55-.05-.23,2.13,1.2.09-2.23-1.38-.78Zm.92-1.69.61.34.09-2.14-.61-.34Zm.1-2.35.61.35.09-2.07-.61-.34Zm1.3,3.14.58.33.09-2.14-.58-.33ZM168,384l.58.33.09-2.07-.58-.33Z"/><path class="cls-1" d="M174.7,386.27a.2.2,0,0,1-.29.13l-.73.67.38.21.62.09-.28,6.6a1.27,1.27,0,0,1-.17.65c-.1.15-.3.18-.58.09,0-.1,0-.19,0-.29a2.73,2.73,0,0,0,0-.3,1.84,1.84,0,0,0-.06-.32,2,2,0,0,0-.13-.33l0,.63a.26.26,0,0,1-.29.06l-.26-.1L173,391l-.34-.19a9.2,9.2,0,0,1-.35,1.64,3.06,3.06,0,0,1-.76,1.29,10.52,10.52,0,0,0,.28-1.22c.07-.42.13-.86.17-1.31s.08-.92.1-1.4,0-1,.07-1.48l.07-1.8-.22.21a1.09,1.09,0,0,1-.24.16c.07-.17.15-.37.24-.62s.17-.52.26-.82.17-.62.24-1,.13-.68.18-1l.9,1a.7.7,0,0,1-.1.17.15.15,0,0,1-.16,0l-.12.29c0,.1-.09.2-.14.3l.79.45L174,385Zm-1.16.72.29-1.22-.82-.46a7.32,7.32,0,0,1-.48.8,2.19,2.19,0,0,1,.37.52Zm-.74,1.9c0,.26,0,.53,0,.83s0,.59-.08.89l.33.18.08-1.83-.28-.16Zm0-.29.28.16.07-1.77-.28-.16Zm.73,4.69c.07,0,.13.06.17,0s.07-.13.07-.29l.07-1.57-.32-.18-.08,2Zm0-2.2.32.18.08-1.83-.32-.18Zm.08-2,.32.18.07-1.77-.32-.18Zm1,3.4,1.13.64.07-1.74-.58-.33a5,5,0,0,1-.36.6,2,2,0,0,1-.37.42c.05-.2.1-.43.16-.67s.1-.49.15-.76.09-.53.12-.8.06-.53.07-.78l.82.88a.21.21,0,0,1-.09.16l-.14.05a3,3,0,0,1-.13.38l-.15.35.52.29.07-1.7.91.78c0,.18-.12.26-.23.24l0,1.08,1.06.6-.08.16-1-.55-.07,1.74,1.24.7-.09.14-1.15-.65-.1,2.51a.4.4,0,0,1-.37.06,1.1,1.1,0,0,1-.36-.17l.12-2.79-1.08-.61Zm.2-7,2.29,1.29.68,0-.18,1.94c0,.19,0,.37-.07.54a1,1,0,0,1-.15.42.53.53,0,0,1-.32.22,1,1,0,0,1-.54-.05c0-.16,0-.31,0-.44a1.91,1.91,0,0,0-.07-.4,1.58,1.58,0,0,0-.17-.38,1.84,1.84,0,0,0-.31-.39,1.63,1.63,0,0,1-.52.59,1.53,1.53,0,0,1-.75.24c.09-.14.19-.29.28-.47a4,4,0,0,0,.25-.6,6.53,6.53,0,0,0,.21-.8c.06-.3.11-.66.15-1.06l-.7-.39Zm1.75,3.09c.21.12.33,0,.35-.38l.11-1.26-.71-.4a4.32,4.32,0,0,1-.37,1.66Z"/><path class="cls-1" d="M423.91,149a.63.63,0,0,1-.18-.08l-.23-.17a1.89,1.89,0,0,1-.25-.24,1.29,1.29,0,0,1-.2-.32l0-.65L420.35,146l0,.72a.63.63,0,0,1-.41,0,1.67,1.67,0,0,1-.41-.19l.38-9a2.71,2.71,0,0,1,.43.41,4.81,4.81,0,0,1,.36.48h0l.58.32.07-2,1.11,1.06-1,1,2,1.1.88.05Zm-3.55-3.16,2.73,1.54.1-2.3-2.73-1.54Zm.1-2.48,2.73,1.54.1-2.33-2.73-1.54Zm.1-2.5,2.73,1.54.1-2.3-2.73-1.5Z"/><path class="cls-1" d="M426.92,149.68l.27-.17a3,3,0,0,0,.31-.24,2.68,2.68,0,0,0,.3-.31,2.32,2.32,0,0,0,.26-.38,3.84,3.84,0,0,1,.15,1.11,2.59,2.59,0,0,1-.13.81,1,1,0,0,1-.31.46.35.35,0,0,1-.37.05.75.75,0,0,1-.32-.41A2.64,2.64,0,0,1,426.92,149.68Zm1.56-3.75q0,.38-.17.47a.67.67,0,0,1-.32.09q0-.44-.07-.86c0-.29-.06-.55-.09-.78l-.29.39a4.8,4.8,0,0,1-.33.37c.09-.25.19-.55.29-.89s.2-.72.3-1.12.18-.83.26-1.28.14-.91.19-1.38l1,1a.34.34,0,0,1-.07.18s-.09,0-.18,0l-.09.37c0,.12-.06.23-.09.35l.76.43c0-.12,0-.23.06-.36s0-.25.05-.37l.78,1.32a.75.75,0,0,1-.07.22.13.13,0,0,1-.14.08l-.16.68.58.33q.07-.62.1-1.36t0-1.65l1,.85c0,.19-.13.29-.27.28q0,.67-.05,1.24c0,.38-.05.73-.09,1.06l1.6.9-.09.16-1.31-.74a9.57,9.57,0,0,0,.29,1.3,8.5,8.5,0,0,0,.39,1,7.69,7.69,0,0,0,.42.81,5.2,5.2,0,0,0,.4.57,2.83,2.83,0,0,0-.43.38,3.54,3.54,0,0,0-.44.59,9.38,9.38,0,0,1-.43-1.27,10.4,10.4,0,0,1-.23-1.2c-.05-.39-.08-.78-.1-1.16s0-.77,0-1.17l-.09,0a8.32,8.32,0,0,1-.28,1.38,3.07,3.07,0,0,1-.47,1,2.07,2.07,0,0,1-.71.59,3.14,3.14,0,0,1-1,.3,5.7,5.7,0,0,0,.67-.74,4.55,4.55,0,0,0,.49-.82,5.64,5.64,0,0,0,.33-.95,9.36,9.36,0,0,0,.21-1.13L430,145a7.42,7.42,0,0,1-.5,1.4,4.13,4.13,0,0,1-.63.95,3.07,3.07,0,0,1-.79.63,6.36,6.36,0,0,1-1,.44,9.3,9.3,0,0,0,.95-1.13,7.54,7.54,0,0,0,.68-1.17,8.44,8.44,0,0,0,.47-1.26,13.6,13.6,0,0,0,.31-1.42l-.78-.44c-.07.22-.14.43-.23.64a1.56,1.56,0,0,1,.57,1,.68.68,0,0,1,0,.28.45.45,0,0,1-.11.17.42.42,0,0,1-.15.09l-.15,0-.11-.68q-.06-.33-.11-.64a6.11,6.11,0,0,1-.5.89A1.65,1.65,0,0,1,428.47,145.93Zm.52,6c0-.22,0-.45,0-.69s0-.48,0-.71,0-.47-.05-.69,0-.44-.07-.63a5.4,5.4,0,0,1,.69,1.15,2.17,2.17,0,0,1,.18.91.9.9,0,0,1-.09.4.59.59,0,0,1-.18.21.46.46,0,0,1-.22.07Zm1.51.8c0-.21,0-.45,0-.7s0-.5-.07-.75-.05-.5-.08-.73-.06-.45-.08-.64a5.29,5.29,0,0,1,.78,1.23,2.09,2.09,0,0,1,.19,1,1,1,0,0,1-.11.38.59.59,0,0,1-.18.21.46.46,0,0,1-.21.08A.41.41,0,0,1,430.5,152.7Zm1.56.9-.09-.72c0-.27-.07-.56-.11-.85s-.08-.57-.12-.84-.08-.49-.12-.68q.31.38.53.68a5.12,5.12,0,0,1,.38.57,2.63,2.63,0,0,1,.34,1.05,1.4,1.4,0,0,1,0,.6.65.65,0,0,1-.21.32.33.33,0,0,1-.29.05A.48.48,0,0,1,432.05,153.6Zm.73-8.55a1,1,0,0,1,0,.48.31.31,0,0,1-.18.18.36.36,0,0,1-.24,0,.54.54,0,0,1-.2-.13l-.16-1c-.05-.35-.11-.64-.17-.89l.31.25a2.46,2.46,0,0,1,.3.32,2.08,2.08,0,0,1,.24.38A1.31,1.31,0,0,1,432.78,145.06Z"/><path class="cls-1" d="M435.27,148.89l.65.37h.7l-.17,4.28.92-.11-1.45,1.65a1.17,1.17,0,0,1,0,.23.15.15,0,0,1-.1.12l-.42-1.76.31,0,.18-4.23-.55-.31Zm1-1.06-.08-.6c0-.24-.07-.48-.12-.73s-.08-.49-.13-.72l-.11-.56a2.25,2.25,0,0,1,.32.28,3.6,3.6,0,0,1,.37.44,3.41,3.41,0,0,1,.32.57,1.88,1.88,0,0,1,.16.64,1.25,1.25,0,0,1,0,.53.52.52,0,0,1-.19.27.32.32,0,0,1-.26,0A.47.47,0,0,1,436.28,147.83Zm1-1.22,3.92,2.22-.09.13-1.89-1.07-.29,1.77.84.48h0l.8.07-.12,2.87.75.42-.08.14-4.21-2.38-.05-.22,1,.54.35-2.16-.64-.36-.06-.22.73.41.29-1.77-1.16-.66Zm3.25,11.68a3.27,3.27,0,0,1-.38-.28,2.45,2.45,0,0,1-.37-.41v-.35l-1.77-1,0,.55a.67.67,0,0,1-.37,0,1.83,1.83,0,0,1-.38-.14l.17-4.12a2,2,0,0,1,.41.38c.11.14.21.28.31.42h0l1.77,1,.78,0Zm-2.5-2.22,1.77,1,.11-2.54-1.77-1Zm.52-4.09,1.12.63.1-2.3-.86-.49Z"/><path class="cls-1" d="M443.68,151.38l2.54,1.43q-.05-.47-.14-1t-.17-1a3.75,3.75,0,0,1,.39.26,2.69,2.69,0,0,1,.37.33,1.83,1.83,0,0,1,.28.41,1.21,1.21,0,0,1,.13.49,1,1,0,0,1-.09.52,1.35,1.35,0,0,1-.24.36l2.71,1.53-.08.13-5.64-3.19Zm4.51,11.37a.56.56,0,0,1-.17-.08l-.21-.16a2.17,2.17,0,0,1-.23-.24,1.39,1.39,0,0,1-.19-.31l0-.36-2.47-1.39,0,.39a.59.59,0,0,1-.41,0,1.5,1.5,0,0,1-.41-.2l.17-4a2.58,2.58,0,0,1,.43.4,4.42,4.42,0,0,1,.34.48l2.5,1.41.82,0Zm-3.89-7.57,4.24,2.39-.09.13-4.08-2.31Zm.07-1.7,4.24,2.39-.09.15-4.08-2.31Zm.57,6.53,2.47,1.39.1-2.47L445,157.54Z"/><path class="cls-1" d="M451.76,155l2.14,1.21-.09.16-.68-.38-.12,2.9.7.39-.08.17-.63-.36-.11,2.75.47,0h.43a2.16,2.16,0,0,1-.32.29l-.45.32-.54.33c-.19.11-.39.21-.59.3a1.21,1.21,0,0,1,0,.27.24.24,0,0,1-.12.15l-.32-2,.7.15.13-3.05-.52-.29-.05-.25.58.33.12-2.9-.55-.31Zm1.81,7.74,1.44.81.08-1.95-.61-.35,0,.48a.57.57,0,0,1-.35,0,1.2,1.2,0,0,1-.38-.16l.25-5.94a1.71,1.71,0,0,1,.39.34,2.69,2.69,0,0,1,.31.45l2,1.12.76,0-.25,5.93a1.46,1.46,0,0,1-.37-.25,2.43,2.43,0,0,1-.37-.4l0-.52-.58-.33-.08,1.95,1.55.87-.08.16-1.48-.84-.09,2.23,1.73,1-.08.16L452.83,165l-.05-.23,2.13,1.2.09-2.23-1.38-.78Zm.92-1.69.61.35.09-2.14-.61-.35Zm.1-2.35.61.35.09-2.07-.61-.35Zm1.3,3.14.58.33.09-2.14-.58-.33Zm.1-2.35.58.33.09-2.07-.58-.33Z"/><path class="cls-1" d="M462.68,161.78a.2.2,0,0,1-.29.13l-.73.67.38.21.62.09-.28,6.6a1.26,1.26,0,0,1-.17.65q-.16.23-.58.09,0-.15,0-.29a2.73,2.73,0,0,0,0-.3,1.77,1.77,0,0,0-.06-.32,1.87,1.87,0,0,0-.13-.33l0,.63a.27.27,0,0,1-.29.07l-.26-.1.13-3.1-.34-.19a9.18,9.18,0,0,1-.35,1.64,3.06,3.06,0,0,1-.76,1.29,10.68,10.68,0,0,0,.28-1.22q.11-.64.17-1.31c0-.45.08-.92.1-1.4s0-1,.07-1.48l.08-1.8-.22.2a1.06,1.06,0,0,1-.24.16c.07-.17.15-.38.24-.62s.17-.52.26-.82.17-.62.24-1,.14-.68.18-1l.9,1a.73.73,0,0,1-.1.17.15.15,0,0,1-.16,0l-.12.29-.14.3.79.45.15-.64Zm-1.16.72.29-1.22-.82-.46a7.45,7.45,0,0,1-.48.8,2.2,2.2,0,0,1,.37.52Zm-.74,1.9c0,.26,0,.53,0,.83s0,.59-.08.89l.33.18.08-1.83-.28-.16Zm0-.29.28.16.07-1.77-.28-.16Zm.73,4.69c.07,0,.13.06.17,0s.07-.13.07-.29l.07-1.57-.32-.18-.08,2Zm0-2.2.32.18.08-1.83-.32-.18Zm.08-2,.32.18L462,163l-.32-.18Zm1,3.4,1.13.64.07-1.74-.58-.33a5,5,0,0,1-.36.6,2.11,2.11,0,0,1-.37.42c.05-.2.1-.43.16-.67s.1-.49.15-.76.09-.53.12-.8.06-.53.07-.78l.82.88a.21.21,0,0,1-.08.16l-.14.05a3,3,0,0,1-.12.38l-.15.35.52.29.07-1.7.91.78c0,.18-.12.26-.23.24l0,1.08,1.06.6-.09.16-1-.55-.07,1.74,1.24.7-.09.14-1.15-.65-.1,2.51a.4.4,0,0,1-.37.06,1.12,1.12,0,0,1-.36-.17l.12-2.79-1.08-.61Zm.2-7,2.29,1.29.68,0-.18,1.94q0,.28-.07.54a1,1,0,0,1-.15.42.52.52,0,0,1-.32.22,1,1,0,0,1-.54-.05l0-.44a1.91,1.91,0,0,0-.07-.4,1.57,1.57,0,0,0-.17-.38,1.87,1.87,0,0,0-.31-.39,1.63,1.63,0,0,1-.52.59,1.53,1.53,0,0,1-.75.24,5.12,5.12,0,0,0,.28-.47,3.79,3.79,0,0,0,.25-.6,6.32,6.32,0,0,0,.21-.8q.09-.45.15-1.06l-.7-.39Zm1.75,3.09q.32.18.35-.38l.11-1.26-.71-.4a4.29,4.29,0,0,1-.37,1.66Z"/><path class="cls-1" d="M446.66,454.68a6.44,6.44,0,0,0,.17,1.79,6.73,6.73,0,0,0,.61,1.61,6.14,6.14,0,0,0,1,1.34,5.38,5.38,0,0,0,1.24,1,1.9,1.9,0,0,0,.78.26,1.86,1.86,0,0,0,.71-.08,1.81,1.81,0,0,0,.6-.33,2.21,2.21,0,0,0,.45-.5l.52.7a2.74,2.74,0,0,1-.59.54,2,2,0,0,1-.77.3,2.63,2.63,0,0,1-1,0,4.18,4.18,0,0,1-1.19-.48,7,7,0,0,1-1.18-.84,8.33,8.33,0,0,1-1-1,8.45,8.45,0,0,1-.81-1.19,8.65,8.65,0,0,1-.58-1.28,7.75,7.75,0,0,1-.34-1.31,6.07,6.07,0,0,1-.09-1.28,4.18,4.18,0,0,1,.19-1.12,2.88,2.88,0,0,1,.45-.87,2.11,2.11,0,0,1,.68-.58,2.17,2.17,0,0,1,.88-.25,3.2,3.2,0,0,1,1.05.11,5,5,0,0,1,1.21.51,5.57,5.57,0,0,1,1.11.82,8,8,0,0,1,.91,1,8.46,8.46,0,0,1,.72,1.15,10.33,10.33,0,0,1,.53,1.17l-.57.12a8.62,8.62,0,0,0-1-2.17,4,4,0,0,0-1.33-1.26,3,3,0,0,0-1.25-.42,1.66,1.66,0,0,0-1,.23,1.94,1.94,0,0,0-.72.88A4,4,0,0,0,446.66,454.68Z"/><path class="cls-1" d="M453.3,453.91l1.28.72-.24,5.7a4,4,0,0,0,.12,1.15,4.8,4.8,0,0,0,.44,1.14,4.86,4.86,0,0,0,.72,1,4,4,0,0,0,1,.77,2.44,2.44,0,0,0,1,.34,1.25,1.25,0,0,0,.77-.17,1.34,1.34,0,0,0,.5-.6,2.56,2.56,0,0,0,.21-1l.24-5.7.56.32-.24,5.7a3.23,3.23,0,0,1-.24,1.17,1.41,1.41,0,0,1-.64.71,1.71,1.71,0,0,1-1.06.13,4.61,4.61,0,0,1-1.53-.59,6.26,6.26,0,0,1-2.37-2.34,5.69,5.69,0,0,1-.58-1.41,4.91,4.91,0,0,1-.16-1.41Z"/><path class="cls-1" d="M466.59,461.42l0,.57-2.75-1.56-.34,8.22-1.28-.72.34-8.22-2.76-1.56,0-.57Z"/><path class="cls-1" d="M472.7,464.87l0,.57-2.75-1.56-.34,8.22-1.28-.72.34-8.22-2.76-1.56,0-.57Z"/><path class="cls-1" d="M472.75,464.9l1.28.72-.37,8.79-1.28-.72Z"/><path class="cls-1" d="M474.83,466.07l.71.4,4.72,9.24,0,0,.27-6.42.56.32-.37,9-.29-.17-5.11-10.2,0,0-.29,6.94-.57-.32Z"/><path class="cls-1" d="M486.25,473a3.09,3.09,0,0,0-1.28-.43,1.65,1.65,0,0,0-1,.24,1.94,1.94,0,0,0-.71.9,4.34,4.34,0,0,0-.3,1.54,6.27,6.27,0,0,0,.19,1.82,7.07,7.07,0,0,0,.65,1.66,6.67,6.67,0,0,0,1,1.4,5.44,5.44,0,0,0,1.28,1,2.91,2.91,0,0,0,.91.35,1.49,1.49,0,0,0,.74,0l.13-3.08-1.44-.81,0-.52,2.72,1.54-.16,3.87a4.61,4.61,0,0,1-.69,0,4.44,4.44,0,0,1-.74-.14,6.24,6.24,0,0,1-.87-.32q-.48-.21-1.07-.55a7.42,7.42,0,0,1-1.19-.84,8.83,8.83,0,0,1-1-1.06,9.28,9.28,0,0,1-.84-1.21,8.59,8.59,0,0,1-.63-1.3,7.52,7.52,0,0,1-.37-1.32,5.61,5.61,0,0,1-.1-1.28,4.17,4.17,0,0,1,.19-1.12,2.93,2.93,0,0,1,.45-.88,2.14,2.14,0,0,1,.68-.59,2.23,2.23,0,0,1,.89-.26,3.12,3.12,0,0,1,1.05.1,5,5,0,0,1,1.2.5,5.69,5.69,0,0,1,1.11.82,8.21,8.21,0,0,1,.91,1,8.42,8.42,0,0,1,.72,1.15,10.35,10.35,0,0,1,.53,1.17l-.57.12a8.61,8.61,0,0,0-1-2.17A4,4,0,0,0,486.25,473Z"/><path class="cls-1" d="M491.86,481.05l0,.78-2.8-1.58,0-.78Z"/><path class="cls-1" d="M497.48,478.87l0,.57-4-2.27-.13,3.14,2.68,1.52,0,.57-2.68-1.52-.16,3.94,4,2.27,0,.57-5.29-3,.37-8.79Z"/><path class="cls-1" d="M497.79,479l2.53,1.43a12,12,0,0,1,2,1.39,7.07,7.07,0,0,1,1.37,1.6,8,8,0,0,1,.91,2,6.17,6.17,0,0,1,.25,2,3.84,3.84,0,0,1-.36,1.58,2,2,0,0,1-.91.94,2.4,2.4,0,0,1-1.42.18,5.48,5.48,0,0,1-1.9-.71l-2.84-1.61Zm.94,8.86,1.35.77a3.36,3.36,0,0,0,1.22.44,1.63,1.63,0,0,0,1-.17,1.74,1.74,0,0,0,.72-.82,3.89,3.89,0,0,0,.31-1.5,5.69,5.69,0,0,0-.17-1.62,6.41,6.41,0,0,0-.59-1.53,6.29,6.29,0,0,0-1-1.32,5.19,5.19,0,0,0-1.24-1l-1.37-.77Z"/><path class="cls-1" d="M509.82,486.27a3.13,3.13,0,0,0-1.28-.43,1.65,1.65,0,0,0-1,.24,1.93,1.93,0,0,0-.71.9,4.34,4.34,0,0,0-.3,1.54,6.3,6.3,0,0,0,.19,1.82,7.06,7.06,0,0,0,.65,1.66,6.68,6.68,0,0,0,1,1.4,5.49,5.49,0,0,0,1.28,1,2.91,2.91,0,0,0,.91.35,1.49,1.49,0,0,0,.74,0l.13-3.08-1.44-.81,0-.52,2.72,1.53-.16,3.87a4.38,4.38,0,0,1-.69,0,4.29,4.29,0,0,1-.74-.14,6.3,6.3,0,0,1-.87-.32c-.32-.14-.67-.33-1.07-.55a7.41,7.41,0,0,1-1.19-.84,8.75,8.75,0,0,1-1-1.06,9.05,9.05,0,0,1-.84-1.21,8.62,8.62,0,0,1-.63-1.3,7.49,7.49,0,0,1-.37-1.32,5.6,5.6,0,0,1-.1-1.28,4.19,4.19,0,0,1,.19-1.12,2.91,2.91,0,0,1,.45-.87,2.18,2.18,0,0,1,.68-.59,2.24,2.24,0,0,1,.89-.26,3.17,3.17,0,0,1,1.05.1,4.89,4.89,0,0,1,1.2.5,5.62,5.62,0,0,1,1.11.82,8.06,8.06,0,0,1,.91,1,8.65,8.65,0,0,1,.72,1.15,10.33,10.33,0,0,1,.53,1.17l-.57.12a8.62,8.62,0,0,0-1-2.17A4,4,0,0,0,509.82,486.27Z"/><path class="cls-1" d="M518.81,490.92l0,.57-4-2.27-.13,3.14,2.68,1.52,0,.57-2.68-1.52-.16,3.94,4,2.27,0,.57-5.29-3,.37-8.79Z"/><path class="cls-1" d="M523.8,493.53l3.21,11-1.3-.74-1-3.59-3.26-1.84-1.32,2.25-.64-.36,4-6.92Zm-2.15,4.4,2.8,1.58-1.24-4.26Z"/><path class="cls-1" d="M527.24,495.68l1.28.72-.37,8.79-1.28-.72Z"/><path class="cls-1" d="M536.86,501.11l0,.57-2.75-1.56-.34,8.22-1.28-.72.34-8.22L530,497.85l0-.57Z"/><path class="cls-1" d="M542.21,504.13l0,.57-4-2.27-.13,3.14,2.68,1.52,0,.57L538,506.14l-.16,3.94,4,2.27,0,.57-5.29-3,.37-8.79Z"/><path class="cls-1" d="M543.5,509.39a6.43,6.43,0,0,0,.17,1.79,6.74,6.74,0,0,0,.61,1.61,6.15,6.15,0,0,0,1,1.34,5.33,5.33,0,0,0,1.24,1,1.89,1.89,0,0,0,.78.26,1.86,1.86,0,0,0,.71-.08,1.79,1.79,0,0,0,.6-.33,2.18,2.18,0,0,0,.45-.5l.52.7a2.77,2.77,0,0,1-.59.54,2,2,0,0,1-.77.3,2.65,2.65,0,0,1-1,0,4.18,4.18,0,0,1-1.19-.48,7.05,7.05,0,0,1-1.18-.84,8.19,8.19,0,0,1-1-1,8.32,8.32,0,0,1-.81-1.19,8.56,8.56,0,0,1-.58-1.28,7.76,7.76,0,0,1-.34-1.31,6.09,6.09,0,0,1-.09-1.28,4.2,4.2,0,0,1,.19-1.12,2.85,2.85,0,0,1,.45-.87,2.11,2.11,0,0,1,.68-.58,2.15,2.15,0,0,1,.88-.25,3.17,3.17,0,0,1,1.05.11,5.08,5.08,0,0,1,1.21.51,5.64,5.64,0,0,1,1.11.82,8.06,8.06,0,0,1,.91,1,8.53,8.53,0,0,1,.72,1.15,10.52,10.52,0,0,1,.53,1.17l-.57.12a8.58,8.58,0,0,0-1-2.17,4,4,0,0,0-1.33-1.26,3,3,0,0,0-1.25-.42,1.66,1.66,0,0,0-1,.23,1.94,1.94,0,0,0-.72.88A4,4,0,0,0,543.5,509.39Z"/><path class="cls-1" d="M551.36,514l-.18,4.21-1.28-.72.37-8.79,1.28.72-.17,4,3.83,2.16.17-4,1.28.72-.37,8.79-1.28-.72.18-4.21Z"/><path class="cls-1" d="M557.45,512.74l.72.4,4.72,9.24,0,0,.27-6.42.56.32-.37,9-.29-.17L558,514.94l0,0-.29,6.94-.57-.32Z"/><path class="cls-1" d="M568.05,527.94a6.56,6.56,0,0,1-1.12-.81,8.27,8.27,0,0,1-1-1,9.31,9.31,0,0,1-.82-1.21,8.82,8.82,0,0,1-.61-1.31,8.16,8.16,0,0,1-.37-1.34,6,6,0,0,1-.1-1.32,3.92,3.92,0,0,1,.2-1.13,2.76,2.76,0,0,1,.46-.85,2.06,2.06,0,0,1,.69-.55,2.35,2.35,0,0,1,.88-.23,3.14,3.14,0,0,1,1,.11,4.82,4.82,0,0,1,1.14.48,6.75,6.75,0,0,1,1.12.8,8.16,8.16,0,0,1,1,1,9.34,9.34,0,0,1,.82,1.19A8.71,8.71,0,0,1,572,523a7.7,7.7,0,0,1,.37,1.32,5.76,5.76,0,0,1,.1,1.29,4.12,4.12,0,0,1-.2,1.15,2.84,2.84,0,0,1-.46.88,2.15,2.15,0,0,1-.69.58,2.3,2.3,0,0,1-.88.25,3.11,3.11,0,0,1-1-.1A4.63,4.63,0,0,1,568.05,527.94Zm0-.44a2.14,2.14,0,0,0,1.17.34,1.31,1.31,0,0,0,.88-.4,2.51,2.51,0,0,0,.58-1,6.24,6.24,0,0,0,.25-1.59,8.35,8.35,0,0,0-.11-1.76,7,7,0,0,0-.47-1.59,5.28,5.28,0,0,0-.81-1.33,4.11,4.11,0,0,0-1.14-1,2.33,2.33,0,0,0-1.19-.36,1.28,1.28,0,0,0-.88.37,2.37,2.37,0,0,0-.56,1,6.18,6.18,0,0,0-.24,1.56,8.92,8.92,0,0,0,.1,1.78,7.15,7.15,0,0,0,.46,1.62,5.45,5.45,0,0,0,.81,1.35A4.06,4.06,0,0,0,568.07,527.5Z"/><path class="cls-1" d="M573.09,521.58l1.28.72-.34,8.22,3.83,2.16,0,.57-5.11-2.89Z"/><path class="cls-1" d="M581.64,535.62a6.6,6.6,0,0,1-1.12-.81,8.19,8.19,0,0,1-1-1,9.21,9.21,0,0,1-.82-1.21,8.82,8.82,0,0,1-.61-1.31,8,8,0,0,1-.37-1.34,6,6,0,0,1-.1-1.32,3.93,3.93,0,0,1,.2-1.13,2.73,2.73,0,0,1,.46-.85,2.06,2.06,0,0,1,.69-.55,2.36,2.36,0,0,1,.88-.23,3.13,3.13,0,0,1,1,.11,4.89,4.89,0,0,1,1.14.48,6.77,6.77,0,0,1,1.12.8,8.16,8.16,0,0,1,1,1,9.31,9.31,0,0,1,.82,1.19,8.66,8.66,0,0,1,.61,1.29,7.82,7.82,0,0,1,.37,1.32,5.78,5.78,0,0,1,.1,1.29,4.12,4.12,0,0,1-.2,1.15,2.86,2.86,0,0,1-.46.88,2.15,2.15,0,0,1-.69.58,2.32,2.32,0,0,1-.88.25,3.11,3.11,0,0,1-1-.1A4.68,4.68,0,0,1,581.64,535.62Zm0-.44a2.16,2.16,0,0,0,1.17.34,1.31,1.31,0,0,0,.88-.4,2.52,2.52,0,0,0,.58-1,6.23,6.23,0,0,0,.25-1.59,8.35,8.35,0,0,0-.11-1.76,7,7,0,0,0-.47-1.59,5.33,5.33,0,0,0-.81-1.33,4.11,4.11,0,0,0-1.14-1,2.31,2.31,0,0,0-1.18-.36,1.28,1.28,0,0,0-.88.37,2.36,2.36,0,0,0-.56,1,6.13,6.13,0,0,0-.24,1.56,8.84,8.84,0,0,0,.1,1.78,7,7,0,0,0,.46,1.62,5.45,5.45,0,0,0,.81,1.35A4.07,4.07,0,0,0,581.66,535.18Z"/><path class="cls-1" d="M591,532.13a3.07,3.07,0,0,0-1.28-.43,1.65,1.65,0,0,0-1,.24,1.93,1.93,0,0,0-.71.9,4.31,4.31,0,0,0-.3,1.54,6.27,6.27,0,0,0,.19,1.82,7.07,7.07,0,0,0,.65,1.66,6.64,6.64,0,0,0,1,1.4,5.45,5.45,0,0,0,1.28,1,2.88,2.88,0,0,0,.91.35,1.5,1.5,0,0,0,.74,0l.13-3.08-1.44-.81,0-.52,2.72,1.53-.16,3.87a4.17,4.17,0,0,1-1.43-.16,6.33,6.33,0,0,1-.87-.32c-.32-.14-.67-.33-1.07-.55a7.36,7.36,0,0,1-1.19-.84,8.82,8.82,0,0,1-1-1.06,9.06,9.06,0,0,1-.84-1.21,8.56,8.56,0,0,1-.63-1.29,7.5,7.5,0,0,1-.37-1.32,5.59,5.59,0,0,1-.1-1.28,4.19,4.19,0,0,1,.19-1.12,2.93,2.93,0,0,1,.45-.88,2.17,2.17,0,0,1,.68-.59,2.24,2.24,0,0,1,.89-.26,3.17,3.17,0,0,1,1.05.1,4.9,4.9,0,0,1,1.2.5,5.62,5.62,0,0,1,1.11.82,8.14,8.14,0,0,1,.91,1,8.53,8.53,0,0,1,.72,1.15,10.33,10.33,0,0,1,.53,1.17l-.57.12a8.61,8.61,0,0,0-1-2.17A4,4,0,0,0,591,532.13Z"/><path class="cls-1" d="M594.7,533.79l1.28.72-.37,8.79-1.28-.72Z"/><path class="cls-1" d="M602.06,537.95l0,.57-4-2.27-.13,3.14,2.68,1.52,0,.57L597.87,540l-.16,3.94,4,2.27,0,.57-5.29-3,.37-8.79Z"/><path class="cls-1" d="M604.09,547.73a2.22,2.22,0,0,0,.56.23,1.05,1.05,0,0,0,.5,0,.64.64,0,0,0,.36-.24.88.88,0,0,0,.16-.52,1.94,1.94,0,0,0-.15-.82,4.8,4.8,0,0,0-.45-.84,9.6,9.6,0,0,0-.65-.87l-.75-.9-.75-.92a8.56,8.56,0,0,1-.65-.95,5.16,5.16,0,0,1-.44-1,2.75,2.75,0,0,1-.14-1,2,2,0,0,1,.2-.84,1,1,0,0,1,.51-.48,1.43,1.43,0,0,1,.8-.06,3.46,3.46,0,0,1,1.07.42,5,5,0,0,1,1.69,1.49,5.47,5.47,0,0,1,.84,2l-.67,0a6,6,0,0,0-.26-.9,4.56,4.56,0,0,0-.4-.82,3.85,3.85,0,0,0-.56-.69,3.46,3.46,0,0,0-.72-.54,1.79,1.79,0,0,0-.64-.24.85.85,0,0,0-.46,0,.62.62,0,0,0-.29.27,1,1,0,0,0-.11.43,1.65,1.65,0,0,0,.16.74,5.49,5.49,0,0,0,.46.82q.29.43.67.88l.77.93c.26.31.52.63.77,1a9.53,9.53,0,0,1,.67,1,5.71,5.71,0,0,1,.46,1,2.52,2.52,0,0,1,.15.94,2.06,2.06,0,0,1-.21.88,1.09,1.09,0,0,1-.55.51,1.58,1.58,0,0,1-.88.06,3.87,3.87,0,0,1-1.2-.47,5.57,5.57,0,0,1-1-.69,5,5,0,0,1-.75-.84,5,5,0,0,1-.54-1,6.66,6.66,0,0,1-.35-1.09l.7.06a5.33,5.33,0,0,0,.29,1,4.88,4.88,0,0,0,.45.84,4.12,4.12,0,0,0,.59.7A3.51,3.51,0,0,0,604.09,547.73Z"/><path class="cls-1" d="M50,132.76l1.31.74c0-.33,0-.69,0-1.06s0-.78,0-1.21l1.1.9a.47.47,0,0,1-.08.32c-.05.05-.12,0-.2,0,0,.29,0,.55,0,.81s0,.5,0,.72l1.4.79.8.12L54,142a1.6,1.6,0,0,1-.1.56.51.51,0,0,1-.25.27.67.67,0,0,1-.39,0,2.5,2.5,0,0,1-.55-.16c0-.1,0-.22,0-.37a2.05,2.05,0,0,0-.11-.5,3.09,3.09,0,0,0-.29-.6,3.44,3.44,0,0,0-.56-.67l1,.67c.15.1.27.13.35.08s.14-.2.15-.45l.25-6-1.4-.79a16.58,16.58,0,0,1-.25,1.9,8,8,0,0,1,1,1.47,3,3,0,0,1,.35,1.16,1.79,1.79,0,0,1-.05.58.68.68,0,0,1-.18.32.41.41,0,0,1-.23.11.43.43,0,0,1-.23,0c0-.18-.07-.42-.12-.7s-.11-.59-.17-.9-.12-.64-.19-1-.13-.61-.2-.87a5.38,5.38,0,0,1-.32,1,3.24,3.24,0,0,1-.44.72,2.45,2.45,0,0,1-.55.5,4,4,0,0,1-.67.35,9.12,9.12,0,0,0,.49-.89,7.68,7.68,0,0,0,.42-1.07,11.26,11.26,0,0,0,.33-1.37,17.11,17.11,0,0,0,.21-1.81L50,132.92l-.33,7.88a.63.63,0,0,1-.41,0,2.14,2.14,0,0,1-.41-.2l.36-8.67a2.86,2.86,0,0,1,.46.39,2.89,2.89,0,0,1,.33.45Z"/><path class="cls-1" d="M60.42,140.57q-.1.29-.33.13v0q.23.41.5.8a7.6,7.6,0,0,0,.59.76,8,8,0,0,0,.73.73,8.35,8.35,0,0,0,.92.69l-.34.6a4.49,4.49,0,0,0-.3.69,4.82,4.82,0,0,1-.64-.75l-.14,3.41a.56.56,0,0,1-.17-.08L61,147.4a1.68,1.68,0,0,1-.22-.24,1.59,1.59,0,0,1-.19-.32l0-.56-2.1-1.19,0,.56a.57.57,0,0,1-.4,0,1.57,1.57,0,0,1-.41-.18l.14-3.28a8.16,8.16,0,0,1-1.21.05l.47-.32q.26-.18.54-.41c.19-.15.38-.32.56-.5s.36-.36.52-.55a4.84,4.84,0,0,0,.44-.59,2.72,2.72,0,0,0,.29-.61Zm2.53-.94q-.07.11-.16.07l-.13-.06-1.12.17a4.09,4.09,0,0,1,.44.65,1.91,1.91,0,0,1,.21.62,1.7,1.7,0,0,1,0,.56.55.55,0,0,1-.14.3.24.24,0,0,1-.23.06.62.62,0,0,1-.27-.14q-.13-.44-.3-.9t-.35-.9q-.19-.44-.38-.85t-.39-.74q.4.31.74.63a7.32,7.32,0,0,1,.61.64l.29-1-3.72-2.1q0,.29,0,.57a2.28,2.28,0,0,1,0,.5,1.2,1.2,0,0,1-.15.38.54.54,0,0,1-.26.23q-.21.08-.39-.27a2.63,2.63,0,0,1-.25-.93,1.33,1.33,0,0,0,.23-.24,3.94,3.94,0,0,0,.24-.37,4.35,4.35,0,0,0,.23-.47,3.23,3.23,0,0,0,.17-.55c0,.14.06.3.09.46s.05.32.08.49l1.69,1c-.05-.31-.1-.63-.15-1s-.09-.6-.12-.81a1.24,1.24,0,0,1,.32.16,1.64,1.64,0,0,1,.34.31,2,2,0,0,1,.27.41,1.14,1.14,0,0,1,.12.48.84.84,0,0,1-.08.41,1.26,1.26,0,0,1-.19.28l1.59.9.23-.75Zm-3.28-.82c-.07.17-.18.19-.32.07a3.77,3.77,0,0,1-1,.88,3.63,3.63,0,0,1-1.33.52l.42-.49q.24-.3.49-.67a8.43,8.43,0,0,0,.46-.79,5.09,5.09,0,0,0,.35-.85Zm1.09,4.91.46,0a9.75,9.75,0,0,1-.68-1.35,10.32,10.32,0,0,1-.52-1.63,4.39,4.39,0,0,1-.81.88,2.8,2.8,0,0,1-.86.47l.15.2.14.21Zm-2.21,1.18,2.1,1.19.09-2.18-2.1-1.19Z"/><path class="cls-1" d="M65.72,145.46l1.93,1.09.12-2.89-1.07-.6q-.14.34-.31.69t-.37.67q-.2.33-.42.62a3.62,3.62,0,0,1-.46.51q.11-.36.26-.92t.31-1.24q.16-.69.3-1.46t.25-1.58l1.13,1.37q-.09.32-.32.26c0,.13-.08.28-.13.43s-.11.32-.18.49l1,.57.12-3,1.08.9a.37.37,0,0,1-.11.24.31.31,0,0,1-.18.05l-.09,2.23,2.18,1.23-.09.15-2.1-1.19L68.47,147l1.93,1.09-.09.14-1.84-1-.15,3.61,2.3,1.3-.08.14-5.6-3.16-.05-.22,2.61,1.48.15-3.61-1.86-1Z"/><path class="cls-1" d="M79.09,150.9a.41.41,0,0,1-.13.19.22.22,0,0,1-.18,0q-.24.84-.48,1.47a7.18,7.18,0,0,1-.51,1.1,5.07,5.07,0,0,0,.18.72,3,3,0,0,0,.19.51c0,.09.09.12.14.09a.41.41,0,0,0,.12-.22l.14-.42c.05-.18.12-.37.2-.58s.14-.41.2-.58q0,.35,0,.81c0,.31,0,.62,0,.94s0,.61,0,.88a2,2,0,0,0,.14.62,1.55,1.55,0,0,1-.15.79.28.28,0,0,1-.34.13.93.93,0,0,1-.4-.3,2.37,2.37,0,0,1-.33-.5,8.82,8.82,0,0,1-.41-1q-.18-.51-.3-1a2.57,2.57,0,0,1-.94.56,4.24,4.24,0,0,1-1.21.19,5.63,5.63,0,0,0,1.9-2,20.87,20.87,0,0,1-.23-2.51q0-1.3,0-2.68l-1.79-1-.09,1.91.67.38h.81L76,152.49a3.07,3.07,0,0,1-.13.75.89.89,0,0,1-.25.4.52.52,0,0,1-.37.12,2,2,0,0,1-.49-.09,3.23,3.23,0,0,0-.11-1,2.25,2.25,0,0,0-.33-.68,4.49,4.49,0,0,1-.58,1.24,5.28,5.28,0,0,1-.84.93,12.82,12.82,0,0,0,.7-2.45,21.78,21.78,0,0,0,.32-3l.12-2.81a2.45,2.45,0,0,1,.46.41,2.61,2.61,0,0,1,.37.52l1.79,1c0-.41,0-.81,0-1.22s0-.82,0-1.25l1.07.94a.73.73,0,0,1-.09.2.16.16,0,0,1-.17,0q0,.3,0,.75c0,.3,0,.63,0,1l1.83,1-.09.14-1.75-1q0,.75,0,1.59t.08,1.67q.17-.53.3-1.1a10.82,10.82,0,0,0,.2-1.22Zm-4.34-1.75c0,.6-.09,1.13-.15,1.59a8.78,8.78,0,0,1-.25,1.21l.5.39q.12.09.19.06a.22.22,0,0,0,.11-.13.87.87,0,0,0,.05-.25l0-.31.18-2.19ZM78.95,148a.9.9,0,0,1-.06.32.62.62,0,0,1-.13.19.4.4,0,0,1-.17.1l-.19,0q-.05-.46-.14-1t-.21-1a2.05,2.05,0,0,1,.35.28,2.57,2.57,0,0,1,.29.34,1.54,1.54,0,0,1,.19.37A1,1,0,0,1,78.95,148Z"/></g></g></svg>