<svg xmlns="http://www.w3.org/2000/svg" viewBox="0 0 59.91 138.59"><defs><style>.cls-1{opacity:0.65;}.cls-10,.cls-11,.cls-12,.cls-13,.cls-14,.cls-15,.cls-16,.cls-17,.cls-18,.cls-2,.cls-3,.cls-4,.cls-5,.cls-6,.cls-7,.cls-9{fill:none;stroke:#fff;stroke-linecap:round;stroke-linejoin:round;}.cls-3{stroke-dasharray:2.03 2.03;}.cls-4{stroke-dasharray:2.03 2.03;}.cls-5{stroke-dasharray:2.03 2.03;}.cls-6{stroke-dasharray:2.01 2.01;}.cls-7{stroke-dasharray:2.03 2.03;}.cls-8{opacity:0.24;}.cls-9{stroke-dasharray:1.55 1.55;}.cls-10{stroke-dasharray:1.56 1.56;}.cls-11{stroke-dasharray:1.56 1.56;}.cls-12{stroke-dasharray:2.57 2.57;}.cls-13{stroke-dasharray:1.56 1.56;}.cls-14{stroke-dasharray:2.11 2.11;}.cls-15{stroke-dasharray:2.11 2.11;}.cls-16{stroke-dasharray:2.11 2.11;}.cls-17{stroke-dasharray:2.09 2.09;}.cls-18{stroke-dasharray:2.11 2.11;}.cls-19{fill:#1454f4;}.cls-20{fill:#1a80fc;}.cls-21{fill:#0b67f9;}</style></defs><title>资源 12</title><g id="图层_2" data-name="图层 2"><g id="图层_1-2" data-name="图层 1"><g class="cls-1"><polyline class="cls-2" points="43.19 54.96 44.05 54.45 44.03 53.45"/><line class="cls-3" x1="44" y1="51.42" x2="43.82" y2="40.28"/><polyline class="cls-2" points="43.8 39.27 43.79 38.27 42.92 37.78"/><line class="cls-3" x1="41.15" y1="36.8" x2="31.41" y2="31.38"/><polyline class="cls-2" points="30.52 30.89 29.65 30.4 28.79 30.92"/><line class="cls-3" x1="27.05" y1="31.96" x2="17.5" y2="37.68"/><polyline class="cls-2" points="16.63 38.2 15.77 38.71 15.79 39.71"/><line class="cls-3" x1="15.82" y1="41.74" x2="15.99" y2="52.88"/><polyline class="cls-2" points="16.01 53.89 16.03 54.89 16.9 55.38"/><line class="cls-3" x1="18.67" y1="56.36" x2="28.41" y2="61.78"/><polyline class="cls-2" points="29.29 62.27 30.17 62.76 31.02 62.24"/><line class="cls-3" x1="32.76" y1="61.2" x2="42.32" y2="55.48"/><polyline class="cls-2" points="29.97 45.53 29.98 46.53 30.86 47.02"/><line class="cls-4" x1="32.63" y1="48.01" x2="42.39" y2="53.43"/><polyline class="cls-2" points="43.27 53.93 44.15 54.41 44.13 53.41"/><line class="cls-4" x1="44.1" y1="51.38" x2="43.92" y2="40.22"/><polyline class="cls-2" points="43.9 39.21 43.89 38.21 43.01 37.72"/><line class="cls-4" x1="41.24" y1="36.74" x2="31.49" y2="31.31"/><path class="cls-2" d="M30.6,30.82l-.87-.49s0,.14,0,.14v.86"/><line class="cls-5" x1="29.77" y1="33.36" x2="29.95" y2="44.52"/><polyline class="cls-2" points="16.64 38.25 15.78 38.77 15.8 39.77"/><line class="cls-6" x1="15.83" y1="41.78" x2="16.02" y2="52.85"/><polyline class="cls-2" points="16.03 53.86 16.05 54.86 16.91 54.35"/><line class="cls-7" x1="18.65" y1="53.3" x2="28.24" y2="47.56"/><polyline class="cls-2" points="29.11 47.04 29.97 46.52 29.95 45.52"/><line class="cls-6" x1="29.92" y1="43.51" x2="29.73" y2="32.44"/><polyline class="cls-2" points="29.72 31.43 29.7 30.43 28.84 30.95"/><line class="cls-7" x1="27.1" y1="31.99" x2="17.51" y2="37.73"/></g><g class="cls-8"><polyline class="cls-2" points="37.61 15.57 38.47 15.06 38.45 14.06"/><line class="cls-9" x1="38.42" y1="12.51" x2="38.34" y2="7.07"/><polyline class="cls-2" points="38.33 6.29 38.31 5.29 37.44 4.81"/><line class="cls-9" x1="36.08" y1="4.05" x2="31.32" y2="1.41"/><polyline class="cls-2" points="30.65 1.03 29.77 0.54 28.91 1.06"/><line class="cls-9" x1="27.58" y1="1.86" x2="22.92" y2="4.65"/><polyline class="cls-2" points="22.25 5.05 21.39 5.56 21.41 6.56"/><line class="cls-9" x1="21.43" y1="8.12" x2="21.52" y2="13.55"/><polyline class="cls-2" points="21.53 14.33 21.55 15.33 22.42 15.82"/><line class="cls-9" x1="23.78" y1="16.57" x2="28.53" y2="19.21"/><polyline class="cls-2" points="29.21 19.59 30.08 20.08 30.94 19.57"/><line class="cls-9" x1="32.27" y1="18.77" x2="36.94" y2="15.97"/><polyline class="cls-2" points="29.96 9.28 29.97 10.28 30.85 10.77"/><line class="cls-10" x1="32.21" y1="11.53" x2="36.97" y2="14.18"/><polyline class="cls-2" points="37.65 14.55 38.52 15.04 38.51 14.04"/><line class="cls-10" x1="38.48" y1="12.48" x2="38.4" y2="7.04"/><polyline class="cls-2" points="38.38 6.26 38.37 5.26 37.49 4.77"/><line class="cls-10" x1="36.13" y1="4.01" x2="31.37" y2="1.36"/><path class="cls-2" d="M30.69,1,29.82.5s0,.09,0,.09l0,.91"/><line class="cls-11" x1="29.85" y1="3.06" x2="29.94" y2="8.51"/><polyline class="cls-2" points="22.26 5.08 21.4 5.59 21.41 6.59"/><line class="cls-12" x1="21.46" y1="9.17" x2="21.52" y2="13.02"/><polyline class="cls-2" points="21.54 14.31 21.56 15.31 22.42 14.8"/><line class="cls-13" x1="23.76" y1="14" x2="28.44" y2="11.19"/><polyline class="cls-2" points="29.11 10.79 29.96 10.28 29.95 9.28"/><line class="cls-12" x1="29.9" y1="6.71" x2="29.84" y2="2.85"/><polyline class="cls-2" points="29.82 1.56 29.8 0.56 28.94 1.07"/><line class="cls-13" x1="27.61" y1="1.88" x2="22.92" y2="4.68"/></g><polyline class="cls-2" points="58.35 121.34 59.21 120.83 59.19 119.83"/><line class="cls-14" x1="59.16" y1="117.72" x2="58.71" y2="89.3"/><polyline class="cls-2" points="58.69 88.24 58.67 87.24 57.8 86.76"/><line class="cls-14" x1="55.96" y1="85.73" x2="31.11" y2="71.91"/><polyline class="cls-2" points="30.19 71.4 29.32 70.91 28.46 71.43"/><line class="cls-14" x1="26.65" y1="72.51" x2="2.26" y2="87.12"/><polyline class="cls-2" points="1.36 87.66 0.5 88.17 0.52 89.17"/><line class="cls-14" x1="0.55" y1="91.28" x2="1" y2="119.71"/><polyline class="cls-2" points="1.02 120.76 1.04 121.76 1.91 122.25"/><line class="cls-14" x1="3.75" y1="123.27" x2="28.6" y2="137.09"/><polyline class="cls-2" points="29.52 137.6 30.39 138.09 31.25 137.57"/><line class="cls-14" x1="33.06" y1="136.49" x2="57.45" y2="121.88"/><polyline class="cls-2" points="30 103.41 30.01 104.41 30.89 104.89"/><line class="cls-15" x1="32.73" y1="105.92" x2="57.62" y2="119.76"/><polyline class="cls-2" points="58.54 120.28 59.41 120.76 59.4 119.76"/><line class="cls-15" x1="59.37" y1="117.65" x2="58.91" y2="89.18"/><polyline class="cls-2" points="58.89 88.12 58.88 87.12 58 86.64"/><line class="cls-15" x1="56.16" y1="85.61" x2="31.27" y2="71.76"/><path class="cls-2" d="M30.35,71.25l-.87-.49s0,.3,0,.3v.7"/><line class="cls-16" x1="29.51" y1="73.87" x2="29.98" y2="102.35"/><polyline class="cls-2" points="1.38 87.76 0.53 88.28 0.54 89.28"/><line class="cls-17" x1="0.58" y1="91.37" x2="1.05" y2="119.64"/><polyline class="cls-2" points="1.07 120.69 1.09 121.69 1.94 121.18"/><line class="cls-18" x1="3.76" y1="120.09" x2="28.22" y2="105.44"/><polyline class="cls-2" points="29.13 104.9 29.98 104.39 29.97 103.39"/><line class="cls-17" x1="29.93" y1="101.29" x2="29.46" y2="73.02"/><polyline class="cls-2" points="29.44 71.97 29.42 70.97 28.56 71.49"/><line class="cls-18" x1="26.75" y1="72.57" x2="2.29" y2="87.22"/><polygon class="cls-19" points="46.51 113.82 46.19 94.01 28.88 84.38 11.88 94.56 12.2 114.37 29.51 124 46.51 113.82"/><path class="cls-20" d="M29.29,104.13l17.34,9.65-.32-19.84L29,84.29s0,.18,0,.18Z"/><polygon class="cls-21" points="11.9 94.62 12.23 114.33 29.27 104.12 28.94 84.42 11.9 94.62"/></g></g></svg>