<svg xmlns="http://www.w3.org/2000/svg" viewBox="0 0 447.23 440.35"><defs><style>.cls-1{opacity:0.81;}.cls-2{fill:#fff;stroke:#fff;stroke-miterlimit:10;}</style></defs><title>资源 13</title><g id="图层_2" data-name="图层 2"><g id="图层_1-2" data-name="图层 1"><g class="cls-1"><path class="cls-2" d="M225.57.51h0L264.33,6,129.62,17l-.06-.44Zm34.7,5.33L225.58,1,134.92,16.08Z"/><path class="cls-2" d="M376.81,211.15l-85.62,145.3-.18-.38L225.23,218.55l.34,0ZM291.23,355.49,376,211.64,225.92,219Z"/><path class="cls-2" d="M225.61,218.31l.17.35,65.8,137.57-.4,0L142.62,339.63l.21-.31ZM290.83,355.7,225.54,219.21,143.41,339.26Z"/><path class="cls-2" d="M142.67,339.18l.37,0,148.79,16.59-.5.34-111,75.54-.1-.26Zm147.91,16.94L143.37,339.71,180.5,431Z"/><path class="cls-2" d="M291.29,355.64l.11.23,32.16,65.29-.33,0L180,431.61a.11.11,0,0,1-.07-.2Zm31.51,65-31.62-64.2a.11.11,0,0,0-.16,0L181.56,430.84a.11.11,0,0,0,.07.2l141.08-10.26A.11.11,0,0,0,322.8,420.61Z"/><path class="cls-2" d="M323.2,420.74l.06.44-97.68,18.66h0l-45.3-8.28a.21.21,0,0,1,0-.41Zm-97.63,18.65,93.81-17.92-137.22,10Z"/><path class="cls-2" d="M70.09,334.53l73.86,4.7.05.13,36.58,91.84a.24.24,0,0,1-.38.27Zm73.55,5.13-72.26-4.6,108.47,95.5Z"/><path class="cls-2" d="M70.22,333.82l110.56,97.56a.17.17,0,0,1-.17.28L107.3,404l0-.08Zm109.12,96.89L71.76,335.78l35.86,67.9Z"/><path class="cls-2" d="M70.84,334.52l37.52,70.55L46.57,343.49Zm35.73,68.13L70.62,335.08l-23.24,8.59Z"/><path class="cls-2" d="M27.27,312l44,22.81-24.4,9Zm42.9,22.74L28.5,313.17,47.07,343.3Z"/><path class="cls-2" d="M60,207l.44,0L226,218.56l-.22.32L143,339.86l-.18-.29ZM225.17,219,60.83,207.52,143,339Z"/><path class="cls-2" d="M156,65.85l.17.36L225.94,219,60,207.43l.22-.32Zm69.25,152.66L155.89,66.76,60.81,207Z"/><path class="cls-2" d="M295.61,86l.2.34,80.54,125.2h0l-151,7.28h0ZM376.35,211.5,295.65,86.9,225.33,218.77Z"/><path class="cls-2" d="M388,81.56l0,.26L376.57,212.06l-.35-.54L294.94,86.76l.39,0ZM376.23,210.73,387.51,82l-91.78,5.13Z"/><path class="cls-2" d="M261.84,5.35,388.5,82l-.72,0-92.58,5.17-.06-.15ZM387,81.61,262.76,6.44l32.72,80.29Z"/><path class="cls-2" d="M260.6,5.13l71,22.29L389.36,83Zm70.78,22.65L264,6.67l122.16,73.9Z"/><path class="cls-2" d="M386.85,80.31l27.47,33.95,32,97.07-.42.16Zm27.06,34.13L388.68,83.28,444.55,207.4Z"/><path class="cls-2" d="M262.41,5.58l33.28,81.66-.39-.06L155.25,66.43l.57-.32ZM295,86.68,262.19,6.22l-105.59,60Z"/><path class="cls-2" d="M263.29,5.59l-.88.5L155.84,66.61l-.11-.2L129.24,16.54l.34,0ZM156,66,261.31,6.2,130,16.93Z"/><path class="cls-2" d="M129.66,16.37l.14.26,26.46,49.56-.27.08L46.19,96.7l.64-.61ZM155.6,65.91l-26.05-48.8L47.77,95.8Z"/><path class="cls-2" d="M387.61,80.92l58.84,130.7h-70.3l0-.24Zm58.15,130.25L387.91,82.67l-11.26,128.5Z"/><path class="cls-2" d="M407.34,323.54l-.48.56-83.69,97.26-.15-.3-32.13-65.24Zm-84.07,97L406,324.37,291.53,356.11Z"/><path class="cls-2" d="M376.11,211.17h70.31l-.1.3L406.66,324.71Zm69.68.45h-69.1l30,111.58Z"/><path class="cls-2" d="M445.9,211.32l.43.13-23.25,95.06,0,0-16.91,18.36Zm-23.23,95,22.13-90.46L407.26,323Z"/><path class="cls-2" d="M423.71,305.16,411.41,331l-88,90.13-.33-.3,83.47-97ZM411.07,330.7l11-23.06-15.17,16.47L328,415.72Z"/><path class="cls-2" d="M376.48,210.82l.14.51L407,324.11l-.21.06-116,32.16.28-.48Zm29.94,113L376.32,212,291.68,355.6Z"/><path class="cls-2" d="M155.55,66l.41.06,139.72,20.7-.15.28-70,132-.19-.41ZM295,87.13,156.3,66.59l69.25,151.5Z"/><path class="cls-2" d="M156.45,65.93l-.34.5L60.25,207.34l-.07-.59L46.73,96.09l.19-.05ZM60.55,206.1,155.4,66.68,47.23,96.42Z"/><path class="cls-2" d="M47.1,95.36,60.66,207.49H1.73l.13-.31ZM60.15,207,46.86,97.14,2.39,207Z"/><path class="cls-2" d="M60.11,205.82l.49.78,82.85,133.1L70.52,335l0-.19ZM142.6,339.19,60.7,207.62l10.24,127Z"/><path class="cls-2" d="M1.68,207H60.61L71,335.85Zm58.51.45H2.43l68,126.26Z"/><path class="cls-2" d="M1.42,205.61l.83,1.55,69,128.17L27.7,312.75l0-.1ZM70.19,334.27,2.69,208.92,28.08,312.45Z"/></g></g></g></svg>