<svg xmlns="http://www.w3.org/2000/svg" viewBox="0 0 714.06 764.86"><defs><style>.cls-1,.cls-2,.cls-3{fill:none;}.cls-1{stroke:#e9fffd;stroke-linecap:round;stroke-linejoin:round;opacity:0.51;}.cls-2,.cls-3{stroke:#0b67f9;stroke-miterlimit:10;}.cls-3{stroke-width:2px;}.cls-4{fill:#0b67f9;}.cls-5{fill:#1a80fc;}.cls-6{fill:#307eef;}</style></defs><title>资源 9</title><g id="图层_2" data-name="图层 2"><g id="图层_1-2" data-name="图层 1"><line class="cls-1" x1="118.75" y1="140.22" x2="216.07" y2="140.22"/><line class="cls-1" x1="118.75" y1="165.83" x2="216.07" y2="165.83"/><path class="cls-2" d="M413.17,718.68,634.09,591.13,413.17,463.59,192.24,591.13c.3.18,1.88,1.26,1.88,1.26Z"/><path class="cls-2" d="M413.17,718.68,634.09,591.13,413.17,463.59,192.24,591.13c.3.18,1.88,1.26,1.88,1.26Z"/><path class="cls-2" d="M413.17,764.28l299.9-173.15L413.17,418,113.27,591.13c.41.24,2.55,1.71,2.55,1.71Z"/><path class="cls-2" d="M413.17,674.36l144.15-83.23L413.17,507.91,269,591.13c.2.11,1.23.82,1.23.82Z"/><path class="cls-2" d="M413.17,630.37l68-39.24-68-39.24-68,39.24.58.39Z"/><line class="cls-3" x1="413.07" y1="440.41" x2="413.07" y2="592.45"/><line class="cls-3" x1="483.04" y1="591.13" x2="205.82" y2="751.61"/><polyline class="cls-3" points="0.52 455.62 245.02 307.27 473.33 435.16"/><path class="cls-4" d="M413.64,614l39-22.5-39-22.5-39,22.5.33.22Z"/><path class="cls-4" d="M544.16,45l39-22.5L544.16,0l-39,22.5.33.22Z"/><path class="cls-4" d="M250.62,164.26l39-22.5-39-22.5-39,22.5.33.22Z"/><path class="cls-4" d="M587.88,389.75l39-22.5-39-22.5-39,22.5.33.22Z"/><polyline class="cls-5" points="317.62 307.11 317.62 196.78 413.17 141.62 508.71 196.78 508.71 307.11"/><polygon class="cls-4" points="317.96 455.9 413.29 511.46 413.29 255.53 317.96 199.96 317.96 455.9"/><polygon class="cls-6" points="508.68 455.86 413.34 511.43 413.34 255.49 508.68 199.92 508.68 455.86"/><line class="cls-3" x1="231.99" y1="367.39" x2="231.99" y2="460.95"/><path class="cls-4" d="M232.34,474.21l24-13.85-24-13.85-24,13.85.2.14Z"/><polyline class="cls-5" points="205.16 384.77 205.16 353.89 231.91 338.44 258.66 353.89 258.66 384.77"/><polygon class="cls-4" points="205.26 426.42 231.95 441.98 231.95 370.33 205.26 354.78 205.26 426.42"/><polygon class="cls-6" points="258.65 426.41 231.96 441.97 231.96 370.32 258.65 354.77 258.65 426.41"/></g></g></svg>